<svg width="905" height="905" viewBox="0 0 905 905" fill="none" xmlns="http://www.w3.org/2000/svg">
<rect width="905" height="905" rx="160" fill="#3B82F6" fill-opacity="0.05"/>
<rect x="82" y="82" width="741" height="741" rx="100" fill="#3B82F6"/>
<path d="M550.5 553C550.5 565.564 540.314 575.75 527.75 575.75C515.186 575.75 505 565.564 505 553C505 540.436 515.186 530.25 527.75 530.25C540.314 530.25 550.5 540.436 550.5 553Z" fill="white" stroke="white" stroke-width="5"/>
<path d="M527.754 525.25H527.75C522.262 525.25 516.896 526.878 512.333 529.927C507.769 532.976 504.213 537.31 502.112 542.381C500.012 547.451 499.462 553.031 500.533 558.414C501.604 563.797 504.247 568.741 508.128 572.622C512.009 576.503 516.953 579.146 522.336 580.217C527.719 581.288 533.299 580.738 538.37 578.638C543.44 576.537 547.774 572.981 550.823 568.417C553.873 563.854 555.5 558.488 555.5 553V552.996C555.489 545.641 552.562 538.59 547.361 533.389C542.16 528.188 535.109 525.261 527.754 525.25ZM527.748 601C518.255 601 508.976 598.184 501.083 592.911C493.189 587.636 487.037 580.14 483.404 571.369C479.771 562.598 478.82 552.947 480.672 543.636C482.524 534.325 487.096 525.772 493.809 519.059C500.522 512.346 509.075 507.774 518.386 505.922C527.697 504.07 537.348 505.021 546.119 508.654C554.89 512.287 562.386 518.439 567.661 526.333C572.934 534.226 575.75 543.505 575.75 552.998C575.737 565.725 570.676 577.927 561.676 586.926C552.677 595.926 540.475 600.987 527.748 601Z" stroke="white" stroke-width="5"/>
<path d="M625.935 546.422C618.134 526.549 604.673 509.402 587.22 497.106C569.767 484.81 549.089 477.906 527.75 477.25C506.411 477.906 485.733 484.81 468.28 497.106C450.827 509.402 437.366 526.549 429.565 546.422L426.75 553L429.565 559.59C437.368 579.461 450.83 596.606 468.283 608.899C485.736 621.193 506.412 628.095 527.75 628.75C549.088 628.095 569.764 621.193 587.217 608.899C604.67 596.606 618.132 579.461 625.935 559.59L628.75 553L625.935 546.422ZM527.75 603.5C517.762 603.5 507.998 600.538 499.694 594.989C491.389 589.44 484.916 581.553 481.094 572.326C477.272 563.098 476.272 552.944 478.22 543.148C480.169 533.352 484.979 524.354 492.041 517.291C499.104 510.229 508.102 505.419 517.898 503.47C527.694 501.522 537.848 502.522 547.076 506.344C556.303 510.166 564.19 516.639 569.739 524.944C575.288 533.248 578.25 543.012 578.25 553C578.233 566.388 572.907 579.223 563.44 588.69C553.973 598.157 541.138 603.483 527.75 603.5Z" fill="white"/>
<path d="M401.5 603.504H351V300.504H452V376.254C452.02 382.945 454.687 389.356 459.418 394.087C464.149 398.818 470.559 401.484 477.25 401.504H553V452.004H578.25V376.254C578.295 374.595 577.979 372.946 577.325 371.42C576.671 369.895 575.695 368.529 574.463 367.417L486.088 279.042C484.976 277.809 483.61 276.832 482.085 276.178C480.559 275.524 478.909 275.209 477.25 275.254H351C344.309 275.274 337.899 277.941 333.168 282.672C328.437 287.403 325.77 293.814 325.75 300.504V603.504C325.77 610.195 328.437 616.606 333.168 621.337C337.899 626.068 344.309 628.734 351 628.754H401.5V603.504ZM477.25 305.554L547.95 376.254H477.25V305.554Z" fill="white"/>
</svg>
