<svg width="1636" height="468" viewBox="0 0 1636 468" fill="none" xmlns="http://www.w3.org/2000/svg">
<circle cx="234" cy="234" r="218" fill="#101D28" stroke="#BBDDFA" stroke-width="32"/>
<path d="M436 234C436 207.473 430.775 181.206 420.624 156.698C410.472 132.19 395.593 109.922 376.836 91.1644C358.078 72.407 335.81 57.5278 311.302 47.3763C286.794 37.2249 260.527 32 234 32C207.473 32 181.206 37.2249 156.698 47.3763C132.19 57.5278 109.922 72.407 91.1644 91.1644C72.407 109.922 57.5278 132.19 47.3763 156.698C37.2249 181.206 32 207.473 32 234L234 234H436Z" fill="#428BCC"/>
<path d="M389 234C389 213.645 384.991 193.49 377.201 174.684C369.412 155.879 357.995 138.792 343.602 124.398C329.208 110.005 312.121 98.5881 293.316 90.7987C274.51 83.0092 254.355 79 234 79C213.645 79 193.49 83.0092 174.684 90.7987C155.879 98.5882 138.792 110.005 124.398 124.398C110.005 138.792 98.5881 155.879 90.7987 174.684C83.0092 193.49 79 213.645 79 234L234 234H389Z" fill="white" fill-opacity="0.2"/>
<path d="M112.167 310V262.4H130.731C134.902 262.4 138.461 263.057 141.407 264.372C144.354 265.687 146.621 267.591 148.207 270.084C149.794 272.577 150.587 275.547 150.587 278.992C150.587 282.437 149.794 285.407 148.207 287.9C146.621 290.348 144.354 292.252 141.407 293.612C138.461 294.927 134.902 295.584 130.731 295.584H115.907L118.967 292.388V310H112.167ZM118.967 293.068L115.907 289.668H130.527C134.879 289.668 138.166 288.739 140.387 286.88C142.654 285.021 143.787 282.392 143.787 278.992C143.787 275.592 142.654 272.963 140.387 271.104C138.166 269.245 134.879 268.316 130.527 268.316H115.907L118.967 264.916V293.068ZM181.665 310V302.384L181.325 300.956V287.968C181.325 285.203 180.509 283.072 178.877 281.576C177.291 280.035 174.888 279.264 171.669 279.264C169.539 279.264 167.453 279.627 165.413 280.352C163.373 281.032 161.651 281.961 160.245 283.14L157.525 278.244C159.384 276.748 161.605 275.615 164.189 274.844C166.819 274.028 169.561 273.62 172.417 273.62C177.359 273.62 181.167 274.821 183.841 277.224C186.516 279.627 187.853 283.299 187.853 288.24V310H181.665ZM169.833 310.408C167.159 310.408 164.801 309.955 162.761 309.048C160.767 308.141 159.225 306.895 158.137 305.308C157.049 303.676 156.505 301.84 156.505 299.8C156.505 297.851 156.959 296.083 157.865 294.496C158.817 292.909 160.336 291.64 162.421 290.688C164.552 289.736 167.408 289.26 170.989 289.26H182.413V293.952H171.261C167.997 293.952 165.799 294.496 164.665 295.584C163.532 296.672 162.965 297.987 162.965 299.528C162.965 301.296 163.668 302.724 165.073 303.812C166.479 304.855 168.428 305.376 170.921 305.376C173.369 305.376 175.5 304.832 177.313 303.744C179.172 302.656 180.509 301.069 181.325 298.984L182.617 303.472C181.756 305.603 180.237 307.303 178.061 308.572C175.885 309.796 173.143 310.408 169.833 310.408ZM212.31 310.408C208.683 310.408 205.873 309.433 203.878 307.484C201.883 305.535 200.886 302.747 200.886 299.12V266.072H207.414V298.848C207.414 300.797 207.89 302.293 208.842 303.336C209.839 304.379 211.245 304.9 213.058 304.9C215.098 304.9 216.798 304.333 218.158 303.2L220.198 307.892C219.201 308.753 217.999 309.388 216.594 309.796C215.234 310.204 213.806 310.408 212.31 310.408ZM194.766 279.332V273.96H217.75V279.332H194.766ZM228.09 310V273.96H234.618V310H228.09ZM231.354 267.024C230.085 267.024 229.02 266.616 228.158 265.8C227.342 264.984 226.934 263.987 226.934 262.808C226.934 261.584 227.342 260.564 228.158 259.748C229.02 258.932 230.085 258.524 231.354 258.524C232.624 258.524 233.666 258.932 234.482 259.748C235.344 260.519 235.774 261.493 235.774 262.672C235.774 263.896 235.366 264.939 234.55 265.8C233.734 266.616 232.669 267.024 231.354 267.024ZM263.131 310.408C259.277 310.408 255.877 309.615 252.931 308.028C250.029 306.441 247.763 304.265 246.131 301.5C244.544 298.735 243.751 295.561 243.751 291.98C243.751 288.399 244.521 285.225 246.063 282.46C247.649 279.695 249.803 277.541 252.523 276C255.288 274.413 258.393 273.62 261.839 273.62C265.329 273.62 268.412 274.391 271.087 275.932C273.761 277.473 275.847 279.649 277.343 282.46C278.884 285.225 279.655 288.467 279.655 292.184C279.655 292.456 279.632 292.773 279.587 293.136C279.587 293.499 279.564 293.839 279.519 294.156H248.851V289.464H276.119L273.467 291.096C273.512 288.784 273.036 286.721 272.039 284.908C271.041 283.095 269.659 281.689 267.891 280.692C266.168 279.649 264.151 279.128 261.839 279.128C259.572 279.128 257.555 279.649 255.787 280.692C254.019 281.689 252.636 283.117 251.639 284.976C250.641 286.789 250.143 288.875 250.143 291.232V292.32C250.143 294.723 250.687 296.876 251.775 298.78C252.908 300.639 254.472 302.089 256.467 303.132C258.461 304.175 260.751 304.696 263.335 304.696C265.465 304.696 267.392 304.333 269.115 303.608C270.883 302.883 272.424 301.795 273.739 300.344L277.343 304.56C275.711 306.464 273.671 307.915 271.223 308.912C268.82 309.909 266.123 310.408 263.131 310.408ZM307.963 273.62C310.91 273.62 313.494 274.187 315.715 275.32C317.982 276.453 319.75 278.176 321.019 280.488C322.289 282.8 322.923 285.724 322.923 289.26V310H316.395V290.008C316.395 286.517 315.534 283.888 313.811 282.12C312.134 280.352 309.754 279.468 306.671 279.468C304.359 279.468 302.342 279.921 300.619 280.828C298.897 281.735 297.559 283.072 296.607 284.84C295.701 286.608 295.247 288.807 295.247 291.436V310H288.719V273.96H294.975V283.684L293.955 281.1C295.134 278.743 296.947 276.907 299.395 275.592C301.843 274.277 304.699 273.62 307.963 273.62ZM347.38 310.408C343.754 310.408 340.943 309.433 338.948 307.484C336.954 305.535 335.956 302.747 335.956 299.12V266.072H342.484V298.848C342.484 300.797 342.96 302.293 343.912 303.336C344.91 304.379 346.315 304.9 348.128 304.9C350.168 304.9 351.868 304.333 353.228 303.2L355.268 307.892C354.271 308.753 353.07 309.388 351.664 309.796C350.304 310.204 348.876 310.408 347.38 310.408ZM329.836 279.332V273.96H352.82V279.332H329.836ZM137.579 349V326.6H140.779V349H137.579ZM156.093 331.88C157.48 331.88 158.696 332.147 159.741 332.68C160.808 333.213 161.64 334.024 162.237 335.112C162.834 336.2 163.133 337.576 163.133 339.24V349H160.061V339.592C160.061 337.949 159.656 336.712 158.845 335.88C158.056 335.048 156.936 334.632 155.485 334.632C154.397 334.632 153.448 334.845 152.637 335.272C151.826 335.699 151.197 336.328 150.749 337.16C150.322 337.992 150.109 339.027 150.109 340.264V349H147.037V332.04H149.981V336.616L149.501 335.4C150.056 334.291 150.909 333.427 152.061 332.808C153.213 332.189 154.557 331.88 156.093 331.88ZM174.642 349.192C172.936 349.192 171.613 348.733 170.674 347.816C169.736 346.899 169.266 345.587 169.266 343.88V328.328H172.338V343.752C172.338 344.669 172.562 345.373 173.01 345.864C173.48 346.355 174.141 346.6 174.994 346.6C175.954 346.6 176.754 346.333 177.394 345.8L178.354 348.008C177.885 348.413 177.32 348.712 176.658 348.904C176.018 349.096 175.346 349.192 174.642 349.192ZM166.386 334.568V332.04H177.202V334.568H166.386ZM189.058 349.192C187.244 349.192 185.644 348.819 184.258 348.072C182.892 347.325 181.826 346.301 181.058 345C180.311 343.699 179.938 342.205 179.938 340.52C179.938 338.835 180.3 337.341 181.026 336.04C181.772 334.739 182.786 333.725 184.066 333C185.367 332.253 186.828 331.88 188.45 331.88C190.092 331.88 191.543 332.243 192.802 332.968C194.06 333.693 195.042 334.717 195.746 336.04C196.471 337.341 196.834 338.867 196.834 340.616C196.834 340.744 196.823 340.893 196.802 341.064C196.802 341.235 196.791 341.395 196.77 341.544H182.338V339.336H195.17L193.922 340.104C193.943 339.016 193.719 338.045 193.25 337.192C192.78 336.339 192.13 335.677 191.298 335.208C190.487 334.717 189.538 334.472 188.45 334.472C187.383 334.472 186.434 334.717 185.602 335.208C184.77 335.677 184.119 336.349 183.65 337.224C183.18 338.077 182.946 339.059 182.946 340.168V340.68C182.946 341.811 183.202 342.824 183.714 343.72C184.247 344.595 184.983 345.277 185.922 345.768C186.86 346.259 187.938 346.504 189.154 346.504C190.156 346.504 191.063 346.333 191.874 345.992C192.706 345.651 193.431 345.139 194.05 344.456L195.746 346.44C194.978 347.336 194.018 348.019 192.866 348.488C191.735 348.957 190.466 349.192 189.058 349.192ZM201.1 349V332.04H204.044V336.648L203.756 335.496C204.225 334.323 205.014 333.427 206.124 332.808C207.233 332.189 208.598 331.88 210.22 331.88V334.856C210.092 334.835 209.964 334.824 209.836 334.824C209.729 334.824 209.622 334.824 209.516 334.824C207.873 334.824 206.572 335.315 205.612 336.296C204.652 337.277 204.172 338.696 204.172 340.552V349H201.1ZM223.284 349V345.416L223.124 344.744V338.632C223.124 337.331 222.74 336.328 221.972 335.624C221.225 334.899 220.094 334.536 218.58 334.536C217.577 334.536 216.596 334.707 215.636 335.048C214.676 335.368 213.865 335.805 213.204 336.36L211.924 334.056C212.798 333.352 213.844 332.819 215.06 332.456C216.297 332.072 217.588 331.88 218.932 331.88C221.257 331.88 223.049 332.445 224.308 333.576C225.566 334.707 226.196 336.435 226.196 338.76V349H223.284ZM217.716 349.192C216.457 349.192 215.348 348.979 214.388 348.552C213.449 348.125 212.724 347.539 212.212 346.792C211.7 346.024 211.444 345.16 211.444 344.2C211.444 343.283 211.657 342.451 212.084 341.704C212.532 340.957 213.246 340.36 214.228 339.912C215.23 339.464 216.574 339.24 218.26 339.24H223.636V341.448H218.388C216.852 341.448 215.817 341.704 215.284 342.216C214.75 342.728 214.484 343.347 214.484 344.072C214.484 344.904 214.814 345.576 215.476 346.088C216.137 346.579 217.054 346.824 218.228 346.824C219.38 346.824 220.382 346.568 221.236 346.056C222.11 345.544 222.74 344.797 223.124 343.816L223.732 345.928C223.326 346.931 222.612 347.731 221.588 348.328C220.564 348.904 219.273 349.192 217.716 349.192ZM239.273 349.192C237.545 349.192 235.998 348.819 234.633 348.072C233.289 347.325 232.233 346.301 231.465 345C230.697 343.699 230.313 342.205 230.313 340.52C230.313 338.835 230.697 337.341 231.465 336.04C232.233 334.739 233.289 333.725 234.633 333C235.998 332.253 237.545 331.88 239.273 331.88C240.809 331.88 242.174 332.189 243.369 332.808C244.585 333.405 245.523 334.301 246.185 335.496L243.849 337C243.294 336.168 242.611 335.56 241.801 335.176C241.011 334.771 240.158 334.568 239.241 334.568C238.131 334.568 237.139 334.813 236.265 335.304C235.39 335.795 234.697 336.488 234.185 337.384C233.673 338.259 233.417 339.304 233.417 340.52C233.417 341.736 233.673 342.792 234.185 343.688C234.697 344.584 235.39 345.277 236.265 345.768C237.139 346.259 238.131 346.504 239.241 346.504C240.158 346.504 241.011 346.312 241.801 345.928C242.611 345.523 243.294 344.904 243.849 344.072L246.185 345.544C245.523 346.717 244.585 347.624 243.369 348.264C242.174 348.883 240.809 349.192 239.273 349.192ZM256.205 349.192C254.498 349.192 253.175 348.733 252.237 347.816C251.298 346.899 250.829 345.587 250.829 343.88V328.328H253.901V343.752C253.901 344.669 254.125 345.373 254.573 345.864C255.042 346.355 255.703 346.6 256.557 346.6C257.517 346.6 258.317 346.333 258.957 345.8L259.917 348.008C259.447 348.413 258.882 348.712 258.221 348.904C257.581 349.096 256.909 349.192 256.205 349.192ZM247.949 334.568V332.04H258.765V334.568H247.949ZM263.631 349V332.04H266.703V349H263.631ZM265.167 328.776C264.569 328.776 264.068 328.584 263.663 328.2C263.279 327.816 263.087 327.347 263.087 326.792C263.087 326.216 263.279 325.736 263.663 325.352C264.068 324.968 264.569 324.776 265.167 324.776C265.764 324.776 266.255 324.968 266.639 325.352C267.044 325.715 267.247 326.173 267.247 326.728C267.247 327.304 267.055 327.795 266.671 328.2C266.287 328.584 265.785 328.776 265.167 328.776ZM279.832 349.192C278.126 349.192 276.611 348.819 275.288 348.072C273.966 347.325 272.92 346.301 272.152 345C271.384 343.677 271 342.184 271 340.52C271 338.835 271.384 337.341 272.152 336.04C272.92 334.739 273.966 333.725 275.288 333C276.611 332.253 278.126 331.88 279.832 331.88C281.518 331.88 283.022 332.253 284.344 333C285.688 333.725 286.734 334.739 287.48 336.04C288.248 337.32 288.632 338.813 288.632 340.52C288.632 342.205 288.248 343.699 287.48 345C286.734 346.301 285.688 347.325 284.344 348.072C283.022 348.819 281.518 349.192 279.832 349.192ZM279.832 346.504C280.92 346.504 281.891 346.259 282.744 345.768C283.619 345.277 284.302 344.584 284.792 343.688C285.283 342.771 285.528 341.715 285.528 340.52C285.528 339.304 285.283 338.259 284.792 337.384C284.302 336.488 283.619 335.795 282.744 335.304C281.891 334.813 280.92 334.568 279.832 334.568C278.744 334.568 277.774 334.813 276.92 335.304C276.067 335.795 275.384 336.488 274.872 337.384C274.36 338.259 274.104 339.304 274.104 340.52C274.104 341.715 274.36 342.771 274.872 343.688C275.384 344.584 276.067 345.277 276.92 345.768C277.774 346.259 278.744 346.504 279.832 346.504ZM301.937 331.88C303.323 331.88 304.539 332.147 305.585 332.68C306.651 333.213 307.483 334.024 308.081 335.112C308.678 336.2 308.977 337.576 308.977 339.24V349H305.905V339.592C305.905 337.949 305.499 336.712 304.689 335.88C303.899 335.048 302.779 334.632 301.329 334.632C300.241 334.632 299.291 334.845 298.481 335.272C297.67 335.699 297.041 336.328 296.593 337.16C296.166 337.992 295.953 339.027 295.953 340.264V349H292.881V332.04H295.825V336.616L295.345 335.4C295.899 334.291 296.753 333.427 297.905 332.808C299.057 332.189 300.401 331.88 301.937 331.88ZM319.526 349.192C318.118 349.192 316.774 349 315.494 348.616C314.235 348.232 313.243 347.763 312.518 347.208L313.798 344.776C314.523 345.267 315.419 345.683 316.486 346.024C317.553 346.365 318.641 346.536 319.75 346.536C321.179 346.536 322.203 346.333 322.822 345.928C323.462 345.523 323.782 344.957 323.782 344.232C323.782 343.699 323.59 343.283 323.206 342.984C322.822 342.685 322.31 342.461 321.67 342.312C321.051 342.163 320.358 342.035 319.59 341.928C318.822 341.8 318.054 341.651 317.286 341.48C316.518 341.288 315.814 341.032 315.174 340.712C314.534 340.371 314.022 339.912 313.638 339.336C313.254 338.739 313.062 337.949 313.062 336.968C313.062 335.944 313.35 335.048 313.926 334.28C314.502 333.512 315.313 332.925 316.358 332.52C317.425 332.093 318.683 331.88 320.134 331.88C321.243 331.88 322.363 332.019 323.494 332.296C324.646 332.552 325.585 332.925 326.31 333.416L324.998 335.848C324.23 335.336 323.43 334.984 322.598 334.792C321.766 334.6 320.934 334.504 320.102 334.504C318.758 334.504 317.755 334.728 317.094 335.176C316.433 335.603 316.102 336.157 316.102 336.84C316.102 337.416 316.294 337.864 316.678 338.184C317.083 338.483 317.595 338.717 318.214 338.888C318.854 339.059 319.558 339.208 320.326 339.336C321.094 339.443 321.862 339.592 322.63 339.784C323.398 339.955 324.091 340.2 324.71 340.52C325.35 340.84 325.862 341.288 326.246 341.864C326.651 342.44 326.854 343.208 326.854 344.168C326.854 345.192 326.555 346.077 325.958 346.824C325.361 347.571 324.518 348.157 323.43 348.584C322.342 348.989 321.041 349.192 319.526 349.192Z" fill="white"/>
<path d="M129.344 231.008C125.256 231.008 121.196 230.476 117.164 229.412C113.132 228.292 109.716 226.724 106.916 224.708L112.208 214.292C114.448 215.916 117.052 217.204 120.02 218.156C122.988 219.108 125.984 219.584 129.008 219.584C132.424 219.584 135.112 218.912 137.072 217.568C139.032 216.224 140.012 214.376 140.012 212.024C140.012 209.784 139.144 208.02 137.408 206.732C135.672 205.444 132.872 204.8 129.008 204.8H122.792V195.812L139.172 177.248L140.684 182.12H109.856V171.2H151.016V180.02L134.72 198.584L127.832 194.636H131.78C139.004 194.636 144.464 196.26 148.16 199.508C151.856 202.756 153.704 206.928 153.704 212.024C153.704 215.328 152.836 218.436 151.1 221.348C149.364 224.204 146.704 226.528 143.12 228.32C139.536 230.112 134.944 231.008 129.344 231.008ZM185.187 231.008C180.371 231.008 176.059 229.832 172.251 227.48C168.443 225.072 165.447 221.6 163.263 217.064C161.079 212.528 159.987 207.04 159.987 200.6C159.987 194.16 161.079 188.672 163.263 184.136C165.447 179.6 168.443 176.156 172.251 173.804C176.059 171.396 180.371 170.192 185.187 170.192C190.059 170.192 194.371 171.396 198.123 173.804C201.931 176.156 204.927 179.6 207.111 184.136C209.295 188.672 210.387 194.16 210.387 200.6C210.387 207.04 209.295 212.528 207.111 217.064C204.927 221.6 201.931 225.072 198.123 227.48C194.371 229.832 190.059 231.008 185.187 231.008ZM185.187 219.5C187.483 219.5 189.471 218.856 191.151 217.568C192.887 216.28 194.231 214.236 195.183 211.436C196.191 208.636 196.695 205.024 196.695 200.6C196.695 196.176 196.191 192.564 195.183 189.764C194.231 186.964 192.887 184.92 191.151 183.632C189.471 182.344 187.483 181.7 185.187 181.7C182.947 181.7 180.959 182.344 179.223 183.632C177.543 184.92 176.199 186.964 175.191 189.764C174.239 192.564 173.763 196.176 173.763 200.6C173.763 205.024 174.239 208.636 175.191 211.436C176.199 214.236 177.543 216.28 179.223 217.568C180.959 218.856 182.947 219.5 185.187 219.5ZM242.199 231.008C237.383 231.008 233.071 229.832 229.263 227.48C225.455 225.072 222.459 221.6 220.275 217.064C218.091 212.528 216.999 207.04 216.999 200.6C216.999 194.16 218.091 188.672 220.275 184.136C222.459 179.6 225.455 176.156 229.263 173.804C233.071 171.396 237.383 170.192 242.199 170.192C247.071 170.192 251.383 171.396 255.135 173.804C258.943 176.156 261.939 179.6 264.123 184.136C266.307 188.672 267.399 194.16 267.399 200.6C267.399 207.04 266.307 212.528 264.123 217.064C261.939 221.6 258.943 225.072 255.135 227.48C251.383 229.832 247.071 231.008 242.199 231.008ZM242.199 219.5C244.495 219.5 246.483 218.856 248.163 217.568C249.899 216.28 251.243 214.236 252.195 211.436C253.203 208.636 253.707 205.024 253.707 200.6C253.707 196.176 253.203 192.564 252.195 189.764C251.243 186.964 249.899 184.92 248.163 183.632C246.483 182.344 244.495 181.7 242.199 181.7C239.959 181.7 237.971 182.344 236.235 183.632C234.555 184.92 233.211 186.964 232.203 189.764C231.251 192.564 230.775 196.176 230.775 200.6C230.775 205.024 231.251 208.636 232.203 211.436C233.211 214.236 234.555 216.28 236.235 217.568C237.971 218.856 239.959 219.5 242.199 219.5ZM287.618 220.76L287.954 204.8L309.038 184.808H324.662L304.418 205.388L297.614 210.932L287.618 220.76ZM276.782 230V167.672H289.886V230H276.782ZM310.466 230L295.178 211.016L303.41 200.852L326.342 230H310.466Z" fill="white"/>
<path d="M347.808 219.052V176.548H359.676V219.052H347.808ZM331.892 203.412V192.188H375.684V203.412H331.892Z" fill="white" fill-opacity="0.65"/>
<circle cx="818" cy="234" r="218" fill="#101D28" stroke="#BBDDFA" stroke-width="32"/>
<path d="M1020 234C1020 207.473 1014.78 181.206 1004.62 156.698C994.472 132.19 979.593 109.922 960.836 91.1644C942.078 72.407 919.81 57.5278 895.302 47.3763C870.794 37.2249 844.527 32 818 32C791.473 32 765.206 37.2249 740.698 47.3763C716.19 57.5278 693.922 72.407 675.164 91.1644C656.407 109.922 641.528 132.19 631.376 156.698C621.225 181.206 616 207.473 616 234L818 234H1020Z" fill="#428BCC"/>
<path d="M733.766 310.544C730.139 310.544 726.784 309.955 723.702 308.776C720.664 307.552 718.012 305.852 715.746 303.676C713.524 301.455 711.779 298.871 710.51 295.924C709.24 292.977 708.606 289.736 708.606 286.2C708.606 282.664 709.24 279.423 710.51 276.476C711.779 273.529 713.547 270.968 715.814 268.792C718.08 266.571 720.732 264.871 723.77 263.692C726.852 262.468 730.207 261.856 733.834 261.856C737.506 261.856 740.883 262.491 743.966 263.76C747.094 264.984 749.746 266.82 751.922 269.268L747.502 273.552C745.688 271.648 743.648 270.243 741.382 269.336C739.115 268.384 736.69 267.908 734.106 267.908C731.431 267.908 728.938 268.361 726.626 269.268C724.359 270.175 722.387 271.444 720.71 273.076C719.032 274.708 717.718 276.657 716.766 278.924C715.859 281.145 715.406 283.571 715.406 286.2C715.406 288.829 715.859 291.277 716.766 293.544C717.718 295.765 719.032 297.692 720.71 299.324C722.387 300.956 724.359 302.225 726.626 303.132C728.938 304.039 731.431 304.492 734.106 304.492C736.69 304.492 739.115 304.039 741.382 303.132C743.648 302.18 745.688 300.729 747.502 298.78L751.922 303.064C749.746 305.512 747.094 307.371 743.966 308.64C740.883 309.909 737.483 310.544 733.766 310.544ZM760.67 310V259.544H767.198V310H760.67ZM779.663 310V273.96H786.191V310H779.663ZM782.927 267.024C781.657 267.024 780.592 266.616 779.731 265.8C778.915 264.984 778.507 263.987 778.507 262.808C778.507 261.584 778.915 260.564 779.731 259.748C780.592 258.932 781.657 258.524 782.927 258.524C784.196 258.524 785.239 258.932 786.055 259.748C786.916 260.519 787.347 261.493 787.347 262.672C787.347 263.896 786.939 264.939 786.123 265.8C785.307 266.616 784.241 267.024 782.927 267.024ZM817.899 273.62C820.845 273.62 823.429 274.187 825.651 275.32C827.917 276.453 829.685 278.176 830.955 280.488C832.224 282.8 832.859 285.724 832.859 289.26V310H826.331V290.008C826.331 286.517 825.469 283.888 823.747 282.12C822.069 280.352 819.689 279.468 816.607 279.468C814.295 279.468 812.277 279.921 810.555 280.828C808.832 281.735 807.495 283.072 806.543 284.84C805.636 286.608 805.183 288.807 805.183 291.436V310H798.655V273.96H804.911V283.684L803.891 281.1C805.069 278.743 806.883 276.907 809.331 275.592C811.779 274.277 814.635 273.62 817.899 273.62ZM844.94 310V273.96H851.468V310H844.94ZM848.204 267.024C846.935 267.024 845.869 266.616 845.008 265.8C844.192 264.984 843.784 263.987 843.784 262.808C843.784 261.584 844.192 260.564 845.008 259.748C845.869 258.932 846.935 258.524 848.204 258.524C849.473 258.524 850.516 258.932 851.332 259.748C852.193 260.519 852.624 261.493 852.624 262.672C852.624 263.896 852.216 264.939 851.4 265.8C850.584 266.616 849.519 267.024 848.204 267.024ZM879.64 310.408C875.968 310.408 872.681 309.615 869.78 308.028C866.924 306.441 864.68 304.265 863.048 301.5C861.416 298.735 860.6 295.561 860.6 291.98C860.6 288.399 861.416 285.225 863.048 282.46C864.68 279.695 866.924 277.541 869.78 276C872.681 274.413 875.968 273.62 879.64 273.62C882.904 273.62 885.805 274.277 888.344 275.592C890.928 276.861 892.923 278.765 894.328 281.304L889.364 284.5C888.185 282.732 886.735 281.44 885.012 280.624C883.335 279.763 881.521 279.332 879.572 279.332C877.215 279.332 875.107 279.853 873.248 280.896C871.389 281.939 869.916 283.412 868.828 285.316C867.74 287.175 867.196 289.396 867.196 291.98C867.196 294.564 867.74 296.808 868.828 298.712C869.916 300.616 871.389 302.089 873.248 303.132C875.107 304.175 877.215 304.696 879.572 304.696C881.521 304.696 883.335 304.288 885.012 303.472C886.735 302.611 888.185 301.296 889.364 299.528L894.328 302.656C892.923 305.149 890.928 307.076 888.344 308.436C885.805 309.751 882.904 310.408 879.64 310.408ZM913.116 310.408C910.124 310.408 907.268 310 904.548 309.184C901.873 308.368 899.765 307.371 898.224 306.192L900.944 301.024C902.485 302.067 904.389 302.951 906.656 303.676C908.922 304.401 911.234 304.764 913.592 304.764C916.629 304.764 918.805 304.333 920.12 303.472C921.48 302.611 922.16 301.409 922.16 299.868C922.16 298.735 921.752 297.851 920.936 297.216C920.12 296.581 919.032 296.105 917.672 295.788C916.357 295.471 914.884 295.199 913.252 294.972C911.62 294.7 909.988 294.383 908.356 294.02C906.724 293.612 905.228 293.068 903.868 292.388C902.508 291.663 901.42 290.688 900.604 289.464C899.788 288.195 899.38 286.517 899.38 284.432C899.38 282.256 899.992 280.352 901.216 278.72C902.44 277.088 904.162 275.841 906.384 274.98C908.65 274.073 911.325 273.62 914.408 273.62C916.765 273.62 919.145 273.915 921.548 274.504C923.996 275.048 925.99 275.841 927.532 276.884L924.744 282.052C923.112 280.964 921.412 280.216 919.644 279.808C917.876 279.4 916.108 279.196 914.34 279.196C911.484 279.196 909.353 279.672 907.948 280.624C906.542 281.531 905.84 282.709 905.84 284.16C905.84 285.384 906.248 286.336 907.064 287.016C907.925 287.651 909.013 288.149 910.328 288.512C911.688 288.875 913.184 289.192 914.816 289.464C916.448 289.691 918.08 290.008 919.712 290.416C921.344 290.779 922.817 291.3 924.132 291.98C925.492 292.66 926.58 293.612 927.396 294.836C928.257 296.06 928.688 297.692 928.688 299.732C928.688 301.908 928.053 303.789 926.784 305.376C925.514 306.963 923.724 308.209 921.412 309.116C919.1 309.977 916.334 310.408 913.116 310.408ZM736.811 349.256C735.297 349.256 733.953 349.011 732.779 348.52C731.606 348.029 730.678 347.347 729.995 346.472C729.313 345.597 728.971 344.584 728.971 343.432C728.971 342.429 729.195 341.512 729.643 340.68C730.091 339.848 730.806 339.048 731.787 338.28C732.769 337.491 734.059 336.68 735.659 335.848C736.961 335.165 737.974 334.568 738.699 334.056C739.446 333.544 739.969 333.064 740.267 332.616C740.587 332.147 740.747 331.645 740.747 331.112C740.747 330.387 740.491 329.8 739.979 329.352C739.467 328.883 738.731 328.648 737.771 328.648C736.769 328.648 735.979 328.904 735.403 329.416C734.849 329.907 734.571 330.557 734.571 331.368C734.571 331.773 734.635 332.168 734.763 332.552C734.913 332.915 735.169 333.331 735.531 333.8C735.915 334.248 736.459 334.824 737.163 335.528L749.003 347.304L747.275 349.352L734.699 336.84C733.953 336.093 733.366 335.432 732.939 334.856C732.513 334.259 732.203 333.683 732.011 333.128C731.819 332.573 731.723 332.008 731.723 331.432C731.723 330.429 731.969 329.555 732.459 328.808C732.971 328.04 733.675 327.453 734.571 327.048C735.489 326.621 736.555 326.408 737.771 326.408C738.902 326.408 739.883 326.6 740.715 326.984C741.547 327.347 742.187 327.88 742.635 328.584C743.105 329.267 743.339 330.099 743.339 331.08C743.339 331.933 743.126 332.723 742.699 333.448C742.294 334.173 741.633 334.877 740.715 335.56C739.798 336.243 738.561 336.979 737.003 337.768C735.723 338.429 734.721 339.048 733.995 339.624C733.27 340.179 732.747 340.733 732.427 341.288C732.129 341.843 731.979 342.451 731.979 343.112C731.979 343.816 732.182 344.445 732.587 345C733.014 345.533 733.601 345.949 734.347 346.248C735.115 346.547 736.001 346.696 737.003 346.696C738.433 346.696 739.723 346.387 740.875 345.768C742.027 345.149 742.987 344.221 743.755 342.984C744.545 341.747 745.121 340.211 745.483 338.376L747.947 339.176C747.521 341.331 746.785 343.155 745.739 344.648C744.715 346.141 743.446 347.283 741.931 348.072C740.417 348.861 738.71 349.256 736.811 349.256ZM777.487 326.6H780.687V349H777.487V326.6ZM764.623 349H761.423V326.6H764.623V349ZM777.775 339.016H764.303V336.232H777.775V339.016ZM794.207 349.192C792.501 349.192 790.986 348.819 789.663 348.072C788.341 347.325 787.295 346.301 786.527 345C785.759 343.677 785.375 342.184 785.375 340.52C785.375 338.835 785.759 337.341 786.527 336.04C787.295 334.739 788.341 333.725 789.663 333C790.986 332.253 792.501 331.88 794.207 331.88C795.893 331.88 797.397 332.253 798.719 333C800.063 333.725 801.109 334.739 801.855 336.04C802.623 337.32 803.007 338.813 803.007 340.52C803.007 342.205 802.623 343.699 801.855 345C801.109 346.301 800.063 347.325 798.719 348.072C797.397 348.819 795.893 349.192 794.207 349.192ZM794.207 346.504C795.295 346.504 796.266 346.259 797.119 345.768C797.994 345.277 798.677 344.584 799.167 343.688C799.658 342.771 799.903 341.715 799.903 340.52C799.903 339.304 799.658 338.259 799.167 337.384C798.677 336.488 797.994 335.795 797.119 335.304C796.266 334.813 795.295 334.568 794.207 334.568C793.119 334.568 792.149 334.813 791.295 335.304C790.442 335.795 789.759 336.488 789.247 337.384C788.735 338.259 788.479 339.304 788.479 340.52C788.479 341.715 788.735 342.771 789.247 343.688C789.759 344.584 790.442 345.277 791.295 345.768C792.149 346.259 793.119 346.504 794.207 346.504ZM812.12 349.192C810.712 349.192 809.368 349 808.088 348.616C806.829 348.232 805.837 347.763 805.112 347.208L806.392 344.776C807.117 345.267 808.013 345.683 809.08 346.024C810.146 346.365 811.234 346.536 812.344 346.536C813.773 346.536 814.797 346.333 815.416 345.928C816.056 345.523 816.376 344.957 816.376 344.232C816.376 343.699 816.184 343.283 815.8 342.984C815.416 342.685 814.904 342.461 814.264 342.312C813.645 342.163 812.952 342.035 812.184 341.928C811.416 341.8 810.648 341.651 809.88 341.48C809.112 341.288 808.408 341.032 807.768 340.712C807.128 340.371 806.616 339.912 806.232 339.336C805.848 338.739 805.656 337.949 805.656 336.968C805.656 335.944 805.944 335.048 806.52 334.28C807.096 333.512 807.906 332.925 808.952 332.52C810.018 332.093 811.277 331.88 812.728 331.88C813.837 331.88 814.957 332.019 816.088 332.296C817.24 332.552 818.178 332.925 818.904 333.416L817.592 335.848C816.824 335.336 816.024 334.984 815.192 334.792C814.36 334.6 813.528 334.504 812.696 334.504C811.352 334.504 810.349 334.728 809.688 335.176C809.026 335.603 808.696 336.157 808.696 336.84C808.696 337.416 808.888 337.864 809.272 338.184C809.677 338.483 810.189 338.717 810.808 338.888C811.448 339.059 812.152 339.208 812.92 339.336C813.688 339.443 814.456 339.592 815.224 339.784C815.992 339.955 816.685 340.2 817.304 340.52C817.944 340.84 818.456 341.288 818.84 341.864C819.245 342.44 819.448 343.208 819.448 344.168C819.448 345.192 819.149 346.077 818.552 346.824C817.954 347.571 817.112 348.157 816.024 348.584C814.936 348.989 813.634 349.192 812.12 349.192ZM832.279 349.192C830.871 349.192 829.58 348.872 828.407 348.232C827.255 347.571 826.327 346.6 825.623 345.32C824.94 344.04 824.599 342.44 824.599 340.52C824.599 338.6 824.93 337 825.591 335.72C826.274 334.44 827.191 333.48 828.343 332.84C829.516 332.2 830.828 331.88 832.279 331.88C833.943 331.88 835.415 332.243 836.695 332.968C837.975 333.693 838.988 334.707 839.735 336.008C840.482 337.288 840.855 338.792 840.855 340.52C840.855 342.248 840.482 343.763 839.735 345.064C838.988 346.365 837.975 347.379 836.695 348.104C835.415 348.829 833.943 349.192 832.279 349.192ZM823.287 355.208V332.04H826.231V336.616L826.039 340.552L826.359 344.488V355.208H823.287ZM832.023 346.504C833.111 346.504 834.082 346.259 834.935 345.768C835.81 345.277 836.492 344.584 836.983 343.688C837.495 342.771 837.751 341.715 837.751 340.52C837.751 339.304 837.495 338.259 836.983 337.384C836.492 336.488 835.81 335.795 834.935 335.304C834.082 334.813 833.111 334.568 832.023 334.568C830.956 334.568 829.986 334.813 829.111 335.304C828.258 335.795 827.575 336.488 827.063 337.384C826.572 338.259 826.327 339.304 826.327 340.52C826.327 341.715 826.572 342.771 827.063 343.688C827.575 344.584 828.258 345.277 829.111 345.768C829.986 346.259 830.956 346.504 832.023 346.504ZM845.1 349V332.04H848.172V349H845.1ZM846.636 328.776C846.038 328.776 845.537 328.584 845.132 328.2C844.748 327.816 844.556 327.347 844.556 326.792C844.556 326.216 844.748 325.736 845.132 325.352C845.537 324.968 846.038 324.776 846.636 324.776C847.233 324.776 847.724 324.968 848.108 325.352C848.513 325.715 848.716 326.173 848.716 326.728C848.716 327.304 848.524 327.795 848.14 328.2C847.756 328.584 847.254 328.776 846.636 328.776ZM859.861 349.192C858.154 349.192 856.832 348.733 855.893 347.816C854.954 346.899 854.485 345.587 854.485 343.88V328.328H857.557V343.752C857.557 344.669 857.781 345.373 858.229 345.864C858.698 346.355 859.36 346.6 860.213 346.6C861.173 346.6 861.973 346.333 862.613 345.8L863.573 348.008C863.104 348.413 862.538 348.712 861.877 348.904C861.237 349.096 860.565 349.192 859.861 349.192ZM851.605 334.568V332.04H862.421V334.568H851.605ZM877.815 349V345.416L877.655 344.744V338.632C877.655 337.331 877.271 336.328 876.503 335.624C875.756 334.899 874.626 334.536 873.111 334.536C872.108 334.536 871.127 334.707 870.167 335.048C869.207 335.368 868.396 335.805 867.735 336.36L866.455 334.056C867.33 333.352 868.375 332.819 869.591 332.456C870.828 332.072 872.119 331.88 873.463 331.88C875.788 331.88 877.58 332.445 878.839 333.576C880.098 334.707 880.727 336.435 880.727 338.76V349H877.815ZM872.247 349.192C870.988 349.192 869.879 348.979 868.919 348.552C867.98 348.125 867.255 347.539 866.743 346.792C866.231 346.024 865.975 345.16 865.975 344.2C865.975 343.283 866.188 342.451 866.615 341.704C867.063 340.957 867.778 340.36 868.759 339.912C869.762 339.464 871.106 339.24 872.791 339.24H878.167V341.448H872.919C871.383 341.448 870.348 341.704 869.815 342.216C869.282 342.728 869.015 343.347 869.015 344.072C869.015 344.904 869.346 345.576 870.007 346.088C870.668 346.579 871.586 346.824 872.759 346.824C873.911 346.824 874.914 346.568 875.767 346.056C876.642 345.544 877.271 344.797 877.655 343.816L878.263 345.928C877.858 346.931 877.143 347.731 876.119 348.328C875.095 348.904 873.804 349.192 872.247 349.192ZM886.412 349V325.256H889.484V349H886.412ZM900.214 349.192C898.806 349.192 897.462 349 896.182 348.616C894.923 348.232 893.931 347.763 893.206 347.208L894.486 344.776C895.211 345.267 896.107 345.683 897.174 346.024C898.24 346.365 899.328 346.536 900.438 346.536C901.867 346.536 902.891 346.333 903.51 345.928C904.15 345.523 904.47 344.957 904.47 344.232C904.47 343.699 904.278 343.283 903.894 342.984C903.51 342.685 902.998 342.461 902.358 342.312C901.739 342.163 901.046 342.035 900.278 341.928C899.51 341.8 898.742 341.651 897.974 341.48C897.206 341.288 896.502 341.032 895.862 340.712C895.222 340.371 894.71 339.912 894.326 339.336C893.942 338.739 893.75 337.949 893.75 336.968C893.75 335.944 894.038 335.048 894.614 334.28C895.19 333.512 896 332.925 897.046 332.52C898.112 332.093 899.371 331.88 900.822 331.88C901.931 331.88 903.051 332.019 904.182 332.296C905.334 332.552 906.272 332.925 906.998 333.416L905.686 335.848C904.918 335.336 904.118 334.984 903.286 334.792C902.454 334.6 901.622 334.504 900.79 334.504C899.446 334.504 898.443 334.728 897.782 335.176C897.12 335.603 896.79 336.157 896.79 336.84C896.79 337.416 896.982 337.864 897.366 338.184C897.771 338.483 898.283 338.717 898.902 338.888C899.542 339.059 900.246 339.208 901.014 339.336C901.782 339.443 902.55 339.592 903.318 339.784C904.086 339.955 904.779 340.2 905.398 340.52C906.038 340.84 906.55 341.288 906.934 341.864C907.339 342.44 907.542 343.208 907.542 344.168C907.542 345.192 907.243 346.077 906.646 346.824C906.048 347.571 905.206 348.157 904.118 348.584C903.03 348.989 901.728 349.192 900.214 349.192Z" fill="white"/>
<path d="M973 234C973 213.645 968.991 193.49 961.201 174.684C953.412 155.879 941.995 138.792 927.602 124.398C913.208 110.005 896.121 98.5881 877.316 90.7987C858.51 83.0092 838.355 79 818 79C797.645 79 777.49 83.0092 758.684 90.7987C739.879 98.5882 722.792 110.005 708.398 124.398C694.005 138.792 682.588 155.879 674.799 174.684C667.009 193.49 663 213.645 663 234L818 234H973Z" fill="white" fill-opacity="0.2"/>
<path d="M716.772 230V221.18L739.452 199.76C741.244 198.136 742.56 196.68 743.4 195.392C744.24 194.104 744.8 192.928 745.08 191.864C745.416 190.8 745.584 189.82 745.584 188.924C745.584 186.572 744.772 184.78 743.148 183.548C741.58 182.26 739.256 181.616 736.176 181.616C733.712 181.616 731.416 182.092 729.288 183.044C727.216 183.996 725.452 185.48 723.996 187.496L714.084 181.112C716.324 177.752 719.46 175.092 723.492 173.132C727.524 171.172 732.172 170.192 737.436 170.192C741.804 170.192 745.612 170.92 748.86 172.376C752.164 173.776 754.712 175.764 756.504 178.34C758.352 180.916 759.276 183.996 759.276 187.58C759.276 189.484 759.024 191.388 758.52 193.292C758.072 195.14 757.12 197.1 755.664 199.172C754.264 201.244 752.192 203.568 749.448 206.144L730.632 223.868L728.028 218.912H761.208V230H716.772ZM792.023 231.008C787.207 231.008 782.895 229.832 779.087 227.48C775.279 225.072 772.283 221.6 770.099 217.064C767.915 212.528 766.823 207.04 766.823 200.6C766.823 194.16 767.915 188.672 770.099 184.136C772.283 179.6 775.279 176.156 779.087 173.804C782.895 171.396 787.207 170.192 792.023 170.192C796.895 170.192 801.207 171.396 804.959 173.804C808.767 176.156 811.763 179.6 813.947 184.136C816.131 188.672 817.223 194.16 817.223 200.6C817.223 207.04 816.131 212.528 813.947 217.064C811.763 221.6 808.767 225.072 804.959 227.48C801.207 229.832 796.895 231.008 792.023 231.008ZM792.023 219.5C794.319 219.5 796.307 218.856 797.987 217.568C799.723 216.28 801.067 214.236 802.019 211.436C803.027 208.636 803.531 205.024 803.531 200.6C803.531 196.176 803.027 192.564 802.019 189.764C801.067 186.964 799.723 184.92 797.987 183.632C796.307 182.344 794.319 181.7 792.023 181.7C789.783 181.7 787.795 182.344 786.059 183.632C784.379 184.92 783.035 186.964 782.027 189.764C781.075 192.564 780.599 196.176 780.599 200.6C780.599 205.024 781.075 208.636 782.027 211.436C783.035 214.236 784.379 216.28 786.059 217.568C787.795 218.856 789.783 219.5 792.023 219.5ZM849.035 231.008C844.219 231.008 839.907 229.832 836.099 227.48C832.291 225.072 829.295 221.6 827.111 217.064C824.927 212.528 823.835 207.04 823.835 200.6C823.835 194.16 824.927 188.672 827.111 184.136C829.295 179.6 832.291 176.156 836.099 173.804C839.907 171.396 844.219 170.192 849.035 170.192C853.907 170.192 858.219 171.396 861.971 173.804C865.779 176.156 868.775 179.6 870.959 184.136C873.143 188.672 874.235 194.16 874.235 200.6C874.235 207.04 873.143 212.528 870.959 217.064C868.775 221.6 865.779 225.072 861.971 227.48C858.219 229.832 853.907 231.008 849.035 231.008ZM849.035 219.5C851.331 219.5 853.319 218.856 854.999 217.568C856.735 216.28 858.079 214.236 859.031 211.436C860.039 208.636 860.543 205.024 860.543 200.6C860.543 196.176 860.039 192.564 859.031 189.764C858.079 186.964 856.735 184.92 854.999 183.632C853.319 182.344 851.331 181.7 849.035 181.7C846.795 181.7 844.807 182.344 843.071 183.632C841.391 184.92 840.047 186.964 839.039 189.764C838.087 192.564 837.611 196.176 837.611 200.6C837.611 205.024 838.087 208.636 839.039 211.436C840.047 214.236 841.391 216.28 843.071 217.568C844.807 218.856 846.795 219.5 849.035 219.5Z" fill="white"/>
<path d="M899.19 219.052V176.548H911.058V219.052H899.19ZM883.274 203.412V192.188H927.066V203.412H883.274Z" fill="white" fill-opacity="0.65"/>
<circle cx="1402" cy="234" r="218" fill="#101D28" stroke="#BBDDFA" stroke-width="32"/>
<path d="M1604 234C1604 207.473 1598.78 181.206 1588.62 156.698C1578.47 132.19 1563.59 109.922 1544.84 91.1644C1526.08 72.407 1503.81 57.5278 1479.3 47.3763C1454.79 37.2249 1428.53 32 1402 32C1375.47 32 1349.21 37.2249 1324.7 47.3763C1300.19 57.5278 1277.92 72.407 1259.16 91.1644C1240.41 109.922 1225.53 132.19 1215.38 156.698C1205.22 181.206 1200 207.473 1200 234L1402 234H1604Z" fill="#428BCC"/>
<path d="M1245.22 310L1266.77 262.4H1273.5L1295.13 310H1287.99L1268.74 266.208H1271.46L1252.22 310H1245.22ZM1254.4 298.1L1256.23 292.66H1283.02L1285 298.1H1254.4ZM1316.65 310.408C1312.98 310.408 1309.69 309.615 1306.79 308.028C1303.94 306.441 1301.69 304.265 1300.06 301.5C1298.43 298.735 1297.61 295.561 1297.61 291.98C1297.61 288.399 1298.43 285.225 1300.06 282.46C1301.69 279.695 1303.94 277.541 1306.79 276C1309.69 274.413 1312.98 273.62 1316.65 273.62C1319.92 273.62 1322.82 274.277 1325.36 275.592C1327.94 276.861 1329.93 278.765 1331.34 281.304L1326.38 284.5C1325.2 282.732 1323.75 281.44 1322.02 280.624C1320.35 279.763 1318.53 279.332 1316.58 279.332C1314.23 279.332 1312.12 279.853 1310.26 280.896C1308.4 281.939 1306.93 283.412 1305.84 285.316C1304.75 287.175 1304.21 289.396 1304.21 291.98C1304.21 294.564 1304.75 296.808 1305.84 298.712C1306.93 300.616 1308.4 302.089 1310.26 303.132C1312.12 304.175 1314.23 304.696 1316.58 304.696C1318.53 304.696 1320.35 304.288 1322.02 303.472C1323.75 302.611 1325.2 301.296 1326.38 299.528L1331.34 302.656C1329.93 305.149 1327.94 307.076 1325.36 308.436C1322.82 309.751 1319.92 310.408 1316.65 310.408ZM1354.97 310.408C1351.3 310.408 1348.01 309.615 1345.11 308.028C1342.25 306.441 1340.01 304.265 1338.38 301.5C1336.74 298.735 1335.93 295.561 1335.93 291.98C1335.93 288.399 1336.74 285.225 1338.38 282.46C1340.01 279.695 1342.25 277.541 1345.11 276C1348.01 274.413 1351.3 273.62 1354.97 273.62C1358.23 273.62 1361.13 274.277 1363.67 275.592C1366.26 276.861 1368.25 278.765 1369.66 281.304L1364.69 284.5C1363.51 282.732 1362.06 281.44 1360.34 280.624C1358.66 279.763 1356.85 279.332 1354.9 279.332C1352.54 279.332 1350.43 279.853 1348.58 280.896C1346.72 281.939 1345.24 283.412 1344.16 285.316C1343.07 287.175 1342.52 289.396 1342.52 291.98C1342.52 294.564 1343.07 296.808 1344.16 298.712C1345.24 300.616 1346.72 302.089 1348.58 303.132C1350.43 304.175 1352.54 304.696 1354.9 304.696C1356.85 304.696 1358.66 304.288 1360.34 303.472C1362.06 302.611 1363.51 301.296 1364.69 299.528L1369.66 302.656C1368.25 305.149 1366.26 307.076 1363.67 308.436C1361.13 309.751 1358.23 310.408 1354.97 310.408ZM1393.27 310.408C1390.19 310.408 1387.47 309.841 1385.11 308.708C1382.8 307.575 1380.99 305.852 1379.67 303.54C1378.4 301.183 1377.77 298.236 1377.77 294.7V273.96H1384.3V293.952C1384.3 297.488 1385.13 300.14 1386.81 301.908C1388.53 303.676 1390.94 304.56 1394.02 304.56C1396.29 304.56 1398.26 304.107 1399.94 303.2C1401.61 302.248 1402.91 300.888 1403.81 299.12C1404.72 297.307 1405.17 295.131 1405.17 292.592V273.96H1411.7V310H1405.51V300.276L1406.53 302.86C1405.35 305.263 1403.59 307.121 1401.23 308.436C1398.87 309.751 1396.22 310.408 1393.27 310.408ZM1424.13 310V273.96H1430.38V283.752L1429.77 281.304C1430.77 278.811 1432.45 276.907 1434.8 275.592C1437.16 274.277 1440.06 273.62 1443.51 273.62V279.944C1443.24 279.899 1442.96 279.876 1442.69 279.876C1442.46 279.876 1442.24 279.876 1442.01 279.876C1438.52 279.876 1435.76 280.919 1433.72 283.004C1431.68 285.089 1430.66 288.104 1430.66 292.048V310H1424.13ZM1471.27 310V302.384L1470.93 300.956V287.968C1470.93 285.203 1470.11 283.072 1468.48 281.576C1466.89 280.035 1464.49 279.264 1461.27 279.264C1459.14 279.264 1457.06 279.627 1455.02 280.352C1452.98 281.032 1451.25 281.961 1449.85 283.14L1447.13 278.244C1448.99 276.748 1451.21 275.615 1453.79 274.844C1456.42 274.028 1459.16 273.62 1462.02 273.62C1466.96 273.62 1470.77 274.821 1473.44 277.224C1476.12 279.627 1477.46 283.299 1477.46 288.24V310H1471.27ZM1459.44 310.408C1456.76 310.408 1454.4 309.955 1452.36 309.048C1450.37 308.141 1448.83 306.895 1447.74 305.308C1446.65 303.676 1446.11 301.84 1446.11 299.8C1446.11 297.851 1446.56 296.083 1447.47 294.496C1448.42 292.909 1449.94 291.64 1452.02 290.688C1454.16 289.736 1457.01 289.26 1460.59 289.26H1472.02V293.952H1460.86C1457.6 293.952 1455.4 294.496 1454.27 295.584C1453.14 296.672 1452.57 297.987 1452.57 299.528C1452.57 301.296 1453.27 302.724 1454.68 303.812C1456.08 304.855 1458.03 305.376 1460.52 305.376C1462.97 305.376 1465.1 304.832 1466.92 303.744C1468.78 302.656 1470.11 301.069 1470.93 298.984L1472.22 303.472C1471.36 305.603 1469.84 307.303 1467.66 308.572C1465.49 309.796 1462.75 310.408 1459.44 310.408ZM1505.25 310.408C1501.57 310.408 1498.29 309.615 1495.39 308.028C1492.53 306.441 1490.29 304.265 1488.65 301.5C1487.02 298.735 1486.21 295.561 1486.21 291.98C1486.21 288.399 1487.02 285.225 1488.65 282.46C1490.29 279.695 1492.53 277.541 1495.39 276C1498.29 274.413 1501.57 273.62 1505.25 273.62C1508.51 273.62 1511.41 274.277 1513.95 275.592C1516.53 276.861 1518.53 278.765 1519.93 281.304L1514.97 284.5C1513.79 282.732 1512.34 281.44 1510.62 280.624C1508.94 279.763 1507.13 279.332 1505.18 279.332C1502.82 279.332 1500.71 279.853 1498.85 280.896C1496.99 281.939 1495.52 283.412 1494.43 285.316C1493.35 287.175 1492.8 289.396 1492.8 291.98C1492.8 294.564 1493.35 296.808 1494.43 298.712C1495.52 300.616 1496.99 302.089 1498.85 303.132C1500.71 304.175 1502.82 304.696 1505.18 304.696C1507.13 304.696 1508.94 304.288 1510.62 303.472C1512.34 302.611 1513.79 301.296 1514.97 299.528L1519.93 302.656C1518.53 305.149 1516.53 307.076 1513.95 308.436C1511.41 309.751 1508.51 310.408 1505.25 310.408ZM1529.48 323.6C1527.76 323.6 1526.08 323.305 1524.45 322.716C1522.82 322.172 1521.42 321.356 1520.24 320.268L1523.02 315.372C1523.93 316.233 1524.93 316.891 1526.02 317.344C1527.1 317.797 1528.26 318.024 1529.48 318.024C1531.07 318.024 1532.39 317.616 1533.43 316.8C1534.47 315.984 1535.45 314.533 1536.35 312.448L1538.6 307.484L1539.28 306.668L1553.42 273.96H1559.81L1542.34 313.604C1541.29 316.143 1540.12 318.137 1538.8 319.588C1537.53 321.039 1536.13 322.059 1534.58 322.648C1533.04 323.283 1531.34 323.6 1529.48 323.6ZM1538.05 311.156L1521.6 273.96H1528.4L1542.4 306.056L1538.05 311.156ZM1331.41 349V332.04H1334.48V349H1331.41ZM1332.95 328.776C1332.35 328.776 1331.85 328.584 1331.44 328.2C1331.06 327.816 1330.87 327.347 1330.87 326.792C1330.87 326.216 1331.06 325.736 1331.44 325.352C1331.85 324.968 1332.35 324.776 1332.95 324.776C1333.55 324.776 1334.04 324.968 1334.42 325.352C1334.83 325.715 1335.03 326.173 1335.03 326.728C1335.03 327.304 1334.84 327.795 1334.45 328.2C1334.07 328.584 1333.57 328.776 1332.95 328.776ZM1349.41 331.88C1350.79 331.88 1352.01 332.147 1353.05 332.68C1354.12 333.213 1354.95 334.024 1355.55 335.112C1356.15 336.2 1356.45 337.576 1356.45 339.24V349H1353.37V339.592C1353.37 337.949 1352.97 336.712 1352.16 335.88C1351.37 335.048 1350.25 334.632 1348.8 334.632C1347.71 334.632 1346.76 334.845 1345.95 335.272C1345.14 335.699 1344.51 336.328 1344.06 337.16C1343.63 337.992 1343.42 339.027 1343.42 340.264V349H1340.35V332.04H1343.29V336.616L1342.81 335.4C1343.37 334.291 1344.22 333.427 1345.37 332.808C1346.53 332.189 1347.87 331.88 1349.41 331.88ZM1370.72 349V332.04H1373.67V336.648L1373.38 335.496C1373.85 334.323 1374.64 333.427 1375.75 332.808C1376.86 332.189 1378.22 331.88 1379.84 331.88V334.856C1379.72 334.835 1379.59 334.824 1379.46 334.824C1379.35 334.824 1379.25 334.824 1379.14 334.824C1377.5 334.824 1376.2 335.315 1375.24 336.296C1374.28 337.277 1373.8 338.696 1373.8 340.552V349H1370.72ZM1391.03 349.192C1389.21 349.192 1387.61 348.819 1386.23 348.072C1384.86 347.325 1383.79 346.301 1383.03 345C1382.28 343.699 1381.91 342.205 1381.91 340.52C1381.91 338.835 1382.27 337.341 1382.99 336.04C1383.74 334.739 1384.75 333.725 1386.03 333C1387.34 332.253 1388.8 331.88 1390.42 331.88C1392.06 331.88 1393.51 332.243 1394.77 332.968C1396.03 333.693 1397.01 334.717 1397.71 336.04C1398.44 337.341 1398.8 338.867 1398.8 340.616C1398.8 340.744 1398.79 340.893 1398.77 341.064C1398.77 341.235 1398.76 341.395 1398.74 341.544H1384.31V339.336H1397.14L1395.89 340.104C1395.91 339.016 1395.69 338.045 1395.22 337.192C1394.75 336.339 1394.1 335.677 1393.27 335.208C1392.46 334.717 1391.51 334.472 1390.42 334.472C1389.35 334.472 1388.4 334.717 1387.57 335.208C1386.74 335.677 1386.09 336.349 1385.62 337.224C1385.15 338.077 1384.91 339.059 1384.91 340.168V340.68C1384.91 341.811 1385.17 342.824 1385.68 343.72C1386.22 344.595 1386.95 345.277 1387.89 345.768C1388.83 346.259 1389.91 346.504 1391.12 346.504C1392.13 346.504 1393.03 346.333 1393.84 345.992C1394.67 345.651 1395.4 345.139 1396.02 344.456L1397.71 346.44C1396.95 347.336 1395.99 348.019 1394.83 348.488C1393.7 348.957 1392.43 349.192 1391.03 349.192ZM1407.93 349.192C1406.52 349.192 1405.18 349 1403.9 348.616C1402.64 348.232 1401.65 347.763 1400.92 347.208L1402.2 344.776C1402.93 345.267 1403.83 345.683 1404.89 346.024C1405.96 346.365 1407.05 346.536 1408.16 346.536C1409.59 346.536 1410.61 346.333 1411.23 345.928C1411.87 345.523 1412.19 344.957 1412.19 344.232C1412.19 343.699 1412 343.283 1411.61 342.984C1411.23 342.685 1410.72 342.461 1410.08 342.312C1409.46 342.163 1408.76 342.035 1408 341.928C1407.23 341.8 1406.46 341.651 1405.69 341.48C1404.92 341.288 1404.22 341.032 1403.58 340.712C1402.94 340.371 1402.43 339.912 1402.04 339.336C1401.66 338.739 1401.47 337.949 1401.47 336.968C1401.47 335.944 1401.76 335.048 1402.33 334.28C1402.91 333.512 1403.72 332.925 1404.76 332.52C1405.83 332.093 1407.09 331.88 1408.54 331.88C1409.65 331.88 1410.77 332.019 1411.9 332.296C1413.05 332.552 1413.99 332.925 1414.72 333.416L1413.4 335.848C1412.64 335.336 1411.84 334.984 1411 334.792C1410.17 334.6 1409.34 334.504 1408.51 334.504C1407.16 334.504 1406.16 334.728 1405.5 335.176C1404.84 335.603 1404.51 336.157 1404.51 336.84C1404.51 337.416 1404.7 337.864 1405.08 338.184C1405.49 338.483 1406 338.717 1406.62 338.888C1407.26 339.059 1407.96 339.208 1408.73 339.336C1409.5 339.443 1410.27 339.592 1411.04 339.784C1411.8 339.955 1412.5 340.2 1413.12 340.52C1413.76 340.84 1414.27 341.288 1414.65 341.864C1415.06 342.44 1415.26 343.208 1415.26 344.168C1415.26 345.192 1414.96 346.077 1414.36 346.824C1413.77 347.571 1412.92 348.157 1411.84 348.584C1410.75 348.989 1409.45 349.192 1407.93 349.192ZM1426.24 349.192C1424.78 349.192 1423.5 348.925 1422.4 348.392C1421.31 347.859 1420.45 347.048 1419.84 345.96C1419.24 344.851 1418.94 343.464 1418.94 341.8V332.04H1422.01V341.448C1422.01 343.112 1422.41 344.36 1423.2 345.192C1424.01 346.024 1425.14 346.44 1426.59 346.44C1427.65 346.44 1428.58 346.227 1429.37 345.8C1430.16 345.352 1430.77 344.712 1431.2 343.88C1431.62 343.027 1431.84 342.003 1431.84 340.808V332.04H1434.91V349H1432V344.424L1432.48 345.64C1431.92 346.771 1431.09 347.645 1429.98 348.264C1428.87 348.883 1427.62 349.192 1426.24 349.192ZM1440.76 349V325.256H1443.83V349H1440.76ZM1455.95 349.192C1454.25 349.192 1452.93 348.733 1451.99 347.816C1451.05 346.899 1450.58 345.587 1450.58 343.88V328.328H1453.65V343.752C1453.65 344.669 1453.87 345.373 1454.32 345.864C1454.79 346.355 1455.45 346.6 1456.31 346.6C1457.27 346.6 1458.07 346.333 1458.71 345.8L1459.67 348.008C1459.2 348.413 1458.63 348.712 1457.97 348.904C1457.33 349.096 1456.66 349.192 1455.95 349.192ZM1447.7 334.568V332.04H1458.51V334.568H1447.7ZM1468.24 349.192C1466.84 349.192 1465.49 349 1464.21 348.616C1462.95 348.232 1461.96 347.763 1461.24 347.208L1462.52 344.776C1463.24 345.267 1464.14 345.683 1465.2 346.024C1466.27 346.365 1467.36 346.536 1468.47 346.536C1469.9 346.536 1470.92 346.333 1471.54 345.928C1472.18 345.523 1472.5 344.957 1472.5 344.232C1472.5 343.699 1472.31 343.283 1471.92 342.984C1471.54 342.685 1471.03 342.461 1470.39 342.312C1469.77 342.163 1469.08 342.035 1468.31 341.928C1467.54 341.8 1466.77 341.651 1466 341.48C1465.24 341.288 1464.53 341.032 1463.89 340.712C1463.25 340.371 1462.74 339.912 1462.36 339.336C1461.97 338.739 1461.78 337.949 1461.78 336.968C1461.78 335.944 1462.07 335.048 1462.64 334.28C1463.22 333.512 1464.03 332.925 1465.08 332.52C1466.14 332.093 1467.4 331.88 1468.85 331.88C1469.96 331.88 1471.08 332.019 1472.21 332.296C1473.36 332.552 1474.3 332.925 1475.03 333.416L1473.72 335.848C1472.95 335.336 1472.15 334.984 1471.32 334.792C1470.48 334.6 1469.65 334.504 1468.82 334.504C1467.48 334.504 1466.47 334.728 1465.81 335.176C1465.15 335.603 1464.82 336.157 1464.82 336.84C1464.82 337.416 1465.01 337.864 1465.4 338.184C1465.8 338.483 1466.31 338.717 1466.93 338.888C1467.57 339.059 1468.28 339.208 1469.04 339.336C1469.81 339.443 1470.58 339.592 1471.35 339.784C1472.12 339.955 1472.81 340.2 1473.43 340.52C1474.07 340.84 1474.58 341.288 1474.96 341.864C1475.37 342.44 1475.57 343.208 1475.57 344.168C1475.57 345.192 1475.27 346.077 1474.68 346.824C1474.08 347.571 1473.24 348.157 1472.15 348.584C1471.06 348.989 1469.76 349.192 1468.24 349.192Z" fill="white"/>
<path d="M1557 234C1557 213.645 1552.99 193.49 1545.2 174.684C1537.41 155.879 1525.99 138.792 1511.6 124.398C1497.21 110.005 1480.12 98.5881 1461.32 90.7987C1442.51 83.0092 1422.35 79 1402 79C1381.65 79 1361.49 83.0092 1342.68 90.7987C1323.88 98.5882 1306.79 110.005 1292.4 124.398C1278.01 138.792 1266.59 155.879 1258.8 174.684C1251.01 193.49 1247 213.645 1247 234L1402 234H1557Z" fill="white" fill-opacity="0.2"/>
<path d="M1321.94 170.192C1327.37 170.192 1332.05 171.312 1335.97 173.552C1339.89 175.792 1342.91 179.068 1345.04 183.38C1347.17 187.636 1348.23 192.956 1348.23 199.34C1348.23 206.116 1346.94 211.856 1344.37 216.56C1341.85 221.264 1338.35 224.848 1333.87 227.312C1329.39 229.776 1324.18 231.008 1318.24 231.008C1315.16 231.008 1312.2 230.672 1309.34 230C1306.48 229.328 1304.02 228.32 1301.95 226.976L1306.99 216.98C1308.61 218.1 1310.35 218.884 1312.2 219.332C1314.04 219.724 1315.98 219.92 1317.99 219.92C1323.03 219.92 1327.04 218.38 1330 215.3C1333.03 212.22 1334.54 207.656 1334.54 201.608C1334.54 200.6 1334.51 199.48 1334.46 198.248C1334.4 197.016 1334.26 195.784 1334.04 194.552L1337.73 198.08C1336.78 200.264 1335.44 202.112 1333.7 203.624C1331.96 205.08 1329.95 206.2 1327.65 206.984C1325.36 207.712 1322.78 208.076 1319.92 208.076C1316.17 208.076 1312.76 207.32 1309.68 205.808C1306.65 204.296 1304.22 202.168 1302.37 199.424C1300.58 196.68 1299.68 193.46 1299.68 189.764C1299.68 185.732 1300.66 182.26 1302.62 179.348C1304.64 176.436 1307.32 174.196 1310.68 172.628C1314.1 171.004 1317.85 170.192 1321.94 170.192ZM1322.78 180.356C1320.82 180.356 1319.11 180.72 1317.66 181.448C1316.2 182.12 1315.05 183.128 1314.21 184.472C1313.37 185.76 1312.95 187.3 1312.95 189.092C1312.95 191.78 1313.85 193.936 1315.64 195.56C1317.49 197.128 1319.92 197.912 1322.95 197.912C1324.91 197.912 1326.64 197.548 1328.16 196.82C1329.72 196.036 1330.93 194.972 1331.77 193.628C1332.61 192.284 1333.03 190.772 1333.03 189.092C1333.03 187.412 1332.61 185.928 1331.77 184.64C1330.98 183.296 1329.84 182.26 1328.32 181.532C1326.81 180.748 1324.96 180.356 1322.78 180.356ZM1379.96 231.008C1375.14 231.008 1370.83 229.832 1367.02 227.48C1363.22 225.072 1360.22 221.6 1358.04 217.064C1355.85 212.528 1354.76 207.04 1354.76 200.6C1354.76 194.16 1355.85 188.672 1358.04 184.136C1360.22 179.6 1363.22 176.156 1367.02 173.804C1370.83 171.396 1375.14 170.192 1379.96 170.192C1384.83 170.192 1389.14 171.396 1392.9 173.804C1396.7 176.156 1399.7 179.6 1401.88 184.136C1404.07 188.672 1405.16 194.16 1405.16 200.6C1405.16 207.04 1404.07 212.528 1401.88 217.064C1399.7 221.6 1396.7 225.072 1392.9 227.48C1389.14 229.832 1384.83 231.008 1379.96 231.008ZM1379.96 219.5C1382.26 219.5 1384.24 218.856 1385.92 217.568C1387.66 216.28 1389 214.236 1389.96 211.436C1390.96 208.636 1391.47 205.024 1391.47 200.6C1391.47 196.176 1390.96 192.564 1389.96 189.764C1389 186.964 1387.66 184.92 1385.92 183.632C1384.24 182.344 1382.26 181.7 1379.96 181.7C1377.72 181.7 1375.73 182.344 1374 183.632C1372.32 184.92 1370.97 186.964 1369.96 189.764C1369.01 192.564 1368.54 196.176 1368.54 200.6C1368.54 205.024 1369.01 208.636 1369.96 211.436C1370.97 214.236 1372.32 216.28 1374 217.568C1375.73 218.856 1377.72 219.5 1379.96 219.5ZM1420.26 230L1460.41 171.2H1470.4L1430.25 230H1420.26ZM1425.38 202.952C1422.52 202.952 1420 202.308 1417.82 201.02C1415.64 199.676 1413.9 197.8 1412.61 195.392C1411.38 192.928 1410.76 190.044 1410.76 186.74C1410.76 183.436 1411.38 180.58 1412.61 178.172C1413.9 175.764 1415.64 173.888 1417.82 172.544C1420 171.2 1422.52 170.528 1425.38 170.528C1428.24 170.528 1430.76 171.2 1432.94 172.544C1435.12 173.888 1436.83 175.764 1438.06 178.172C1439.3 180.58 1439.91 183.436 1439.91 186.74C1439.91 190.044 1439.3 192.928 1438.06 195.392C1436.83 197.8 1435.12 199.676 1432.94 201.02C1430.76 202.308 1428.24 202.952 1425.38 202.952ZM1425.38 196.064C1427.23 196.064 1428.71 195.308 1429.83 193.796C1430.95 192.228 1431.51 189.876 1431.51 186.74C1431.51 183.604 1430.95 181.28 1429.83 179.768C1428.71 178.2 1427.23 177.416 1425.38 177.416C1423.59 177.416 1422.1 178.2 1420.93 179.768C1419.81 181.28 1419.25 183.604 1419.25 186.74C1419.25 189.82 1419.81 192.144 1420.93 193.712C1422.1 195.28 1423.59 196.064 1425.38 196.064ZM1465.28 230.672C1462.48 230.672 1459.96 230.028 1457.72 228.74C1455.54 227.396 1453.83 225.52 1452.6 223.112C1451.36 220.648 1450.75 217.764 1450.75 214.46C1450.75 211.156 1451.36 208.3 1452.6 205.892C1453.83 203.484 1455.54 201.608 1457.72 200.264C1459.96 198.92 1462.48 198.248 1465.28 198.248C1468.19 198.248 1470.74 198.92 1472.92 200.264C1475.11 201.608 1476.82 203.484 1478.05 205.892C1479.28 208.3 1479.9 211.156 1479.9 214.46C1479.9 217.764 1479.28 220.648 1478.05 223.112C1476.82 225.52 1475.11 227.396 1472.92 228.74C1470.74 230.028 1468.19 230.672 1465.28 230.672ZM1465.28 223.784C1467.13 223.784 1468.61 223.028 1469.73 221.516C1470.85 219.948 1471.41 217.596 1471.41 214.46C1471.41 211.38 1470.85 209.056 1469.73 207.488C1468.61 205.92 1467.13 205.136 1465.28 205.136C1463.49 205.136 1462 205.92 1460.83 207.488C1459.71 209 1459.15 211.324 1459.15 214.46C1459.15 217.596 1459.71 219.948 1460.83 221.516C1462 223.028 1463.49 223.784 1465.28 223.784Z" fill="white"/>
<path d="M1503.78 219.052V176.548H1515.65V219.052H1503.78ZM1487.86 203.412V192.188H1531.66V203.412H1487.86Z" fill="white" fill-opacity="0.65"/>
</svg>
