<svg width="2324" height="3234" viewBox="0 0 2324 3234" fill="none" xmlns="http://www.w3.org/2000/svg">
<circle cx="1161.24" cy="1031.16" r="720.771" fill="#99EDFF" fill-opacity="0.65"/>
<path d="M764.95 507.54L607.533 664.599V509.664V506.664H604.533H514.656V3H1251.67V506.664H767.068H765.828L764.95 507.54Z" fill="#E3FFE3" stroke="url(#paint0_linear_845_91)" stroke-width="6"/>
<path d="M1638.6 715.641L1772.13 848.866V727.676V710.676H1789.13H1865V235.012H1155.99V710.676H1626.59H1633.62L1638.6 715.641Z" fill="#E3FFE3" stroke="url(#paint1_linear_845_91)" stroke-width="34"/>
<path d="M755.405 497.63L621.877 630.854V509.664V492.664H604.877H529V17H1238.02V492.664H767.412H760.382L755.405 497.63Z" fill="#E3FFE3" stroke="url(#paint2_linear_845_91)" stroke-width="34"/>
<path fill-rule="evenodd" clip-rule="evenodd" d="M1405.94 353.712H1766.33V340.364H1405.94V353.712ZM1595.03 420.45H1766.33V407.102H1595.03V420.45ZM1330.31 484.963H1766.33V471.616H1330.31V484.963ZM1679.57 558.375H1766.33V545.028H1679.57V558.375Z" fill="#3EA3FB"/>
<path fill-rule="evenodd" clip-rule="evenodd" d="M1001.07 162.395H640.684V149.048H1001.07V162.395ZM811.978 229.134H640.684V215.786H811.978V229.134ZM1076.71 293.647H640.684V280.299H1076.71V293.647ZM727.443 367.059H640.684V353.711H727.443V367.059Z" fill="#3EA3FB"/>
<g filter="url(#filter0_b_845_91)">
<path d="M0 1690.78C0 1497.05 157.116 1340.01 350.928 1340.01H1972.49C2166.3 1340.01 2323.42 1497.05 2323.42 1690.78V2549.05C2323.42 2742.78 2166.3 2899.82 1972.49 2899.82H350.928C157.116 2899.82 0 2742.78 0 2549.05V1690.78Z" fill="url(#paint3_linear_845_91)" fill-opacity="0.5"/>
</g>
<circle cx="1161.24" cy="1146.84" r="605.092" fill="#3EA3FB"/>
<g filter="url(#filter1_b_845_91)">
<path fill-rule="evenodd" clip-rule="evenodd" d="M1972.49 1365.43H350.928C171.16 1365.43 25.4296 1511.09 25.4296 1690.78V2549.05C25.4296 2728.74 171.16 2874.4 350.928 2874.4H1972.49C2152.26 2874.4 2297.99 2728.74 2297.99 2549.05V1690.78C2297.99 1511.09 2152.26 1365.43 1972.49 1365.43ZM350.928 1340.01C157.116 1340.01 0 1497.05 0 1690.78V2549.05C0 2742.78 157.116 2899.82 350.928 2899.82H1972.49C2166.3 2899.82 2323.42 2742.78 2323.42 2549.05V1690.78C2323.42 1497.05 2166.3 1340.01 1972.49 1340.01H350.928Z" fill="url(#paint4_linear_845_91)"/>
</g>
<path d="M152.172 1729.69C152.172 1600.02 257.161 1494.9 386.671 1494.9H1936.74C2066.25 1494.9 2171.23 1600.02 2171.23 1729.69V2512.86C2171.23 2642.53 2066.25 2747.65 1936.74 2747.65H386.671C257.161 2747.65 152.172 2642.53 152.172 2512.86V1729.69Z" fill="white"/>
<path d="M664.538 1198.23C664.514 1286.27 687.558 1372.23 731.375 1447.99L660.348 1706.86L925.743 1637.4C999.147 1677.29 1081.39 1698.19 1164.97 1698.2H1165.19C1441.09 1698.2 1665.68 1474.09 1665.8 1198.63C1665.86 1065.15 1613.83 939.632 1519.3 845.201C1424.79 750.778 1299.09 698.75 1165.17 698.689C889.232 698.689 664.656 922.786 664.542 1198.23" fill="url(#paint5_linear_845_91)"/>
<path d="M662.221 1198.44C662.194 1286.82 685.341 1373.1 729.347 1449.15L658 1709L924.589 1639.27C998.043 1679.22 1080.74 1700.29 1164.9 1700.32H1165.11C1442.26 1700.32 1667.88 1475.33 1668 1198.85C1668.05 1064.85 1615.78 938.848 1520.84 844.061C1425.89 749.287 1299.64 697.055 1165.11 697C887.917 697 662.332 921.953 662.221 1198.44ZM820.985 1436.05L811.031 1420.29C769.187 1353.92 747.101 1277.23 747.132 1198.48C747.219 968.663 934.716 781.692 1165.27 781.692C1276.92 781.739 1381.85 825.155 1460.78 903.928C1539.69 982.709 1583.12 1087.43 1583.09 1198.81C1582.99 1428.63 1395.49 1615.62 1165.11 1615.62H1164.95C1089.94 1615.58 1016.37 1595.49 952.21 1557.52L936.942 1548.48L778.742 1589.86L820.985 1436.05Z" fill="#DCF6DE" fill-opacity="0.78"/>
<path d="M1036.21 982.161C1026.5 960.675 1016.27 960.241 1007.03 959.865C999.462 959.541 990.812 959.565 982.169 959.565C973.519 959.565 959.465 962.802 947.585 975.707C935.693 988.624 902.184 1019.84 902.184 1083.32C902.184 1146.81 948.664 1208.17 955.144 1216.79C961.631 1225.39 1044.88 1359.84 1176.71 1411.57C1286.28 1454.55 1308.58 1446 1332.36 1443.85C1356.14 1441.7 1409.1 1412.64 1419.91 1382.51C1430.72 1352.38 1430.72 1326.55 1427.48 1321.16C1424.24 1315.78 1415.59 1312.55 1402.62 1306.1C1389.64 1299.65 1325.87 1268.43 1313.98 1264.12C1302.09 1259.82 1293.45 1257.67 1284.8 1270.59C1276.15 1283.49 1251.31 1312.55 1243.74 1321.16C1236.17 1329.78 1228.6 1330.86 1215.64 1324.4C1202.66 1317.93 1160.88 1304.32 1111.32 1260.36C1072.76 1226.16 1046.73 1183.92 1039.17 1171C1031.6 1158.09 1038.36 1151.1 1044.86 1144.67C1050.69 1138.89 1057.83 1129.6 1064.33 1122.07C1070.79 1114.53 1072.95 1109.16 1077.28 1100.55C1081.61 1091.94 1079.44 1084.4 1076.2 1077.95C1072.95 1071.49 1047.75 1007.67 1036.21 982.161Z" fill="white"/>
<path d="M1950.53 2285.47H1908.29V2142.32H1856.82V2105.48H2002.01V2142.32H1950.53V2285.47Z" fill="#3093E8"/>
<path d="M1841.58 2285.47H1792.38L1717.87 2170.63V2285.47H1675.63V2105.48H1724.83L1799.34 2220.55V2105.48H1841.58V2285.47Z" fill="#3093E8"/>
<path d="M1518.09 2285.47H1473.81L1544.84 2105.48H1589.24L1660.16 2285.47H1615.88L1602.68 2250.07H1531.28L1518.09 2285.47ZM1544.84 2213.23H1589.24L1567.04 2154.2L1544.84 2213.23Z" fill="#3093E8"/>
<path d="M1432.9 2285.47H1390.67V2142.32H1339.19V2105.48H1484.38V2142.32H1432.9V2285.47Z" fill="#3093E8"/>
<path d="M1195.68 2265.43L1215.6 2233.27C1221.28 2237.75 1226.68 2241.43 1231.8 2244.31C1236.92 2247.11 1241.96 2249.19 1246.92 2250.55C1251.88 2251.91 1256.92 2252.59 1262.04 2252.59C1267.64 2252.59 1272.44 2251.87 1276.44 2250.43C1280.52 2248.91 1283.64 2246.79 1285.8 2244.07C1288.04 2241.35 1289.16 2238.11 1289.16 2234.35C1289.16 2229.95 1287.68 2226.23 1284.72 2223.19C1281.76 2220.07 1277.84 2217.35 1272.96 2215.03C1268.16 2212.63 1262.92 2210.27 1257.24 2207.95C1251.48 2205.55 1245.6 2202.95 1239.6 2200.15C1233.68 2197.35 1228.24 2193.95 1223.28 2189.95C1218.32 2185.87 1214.28 2180.95 1211.16 2175.19C1208.12 2169.43 1206.6 2162.44 1206.6 2154.2C1206.6 2143.32 1209.32 2134 1214.76 2126.24C1220.28 2118.4 1227.8 2112.4 1237.32 2108.24C1246.92 2104 1257.76 2101.88 1269.84 2101.88C1278.64 2101.88 1287.8 2103.04 1297.32 2105.36C1306.92 2107.68 1316.55 2111.28 1326.23 2116.16L1309.8 2150.12C1304.04 2146.6 1297.8 2143.84 1291.08 2141.84C1284.44 2139.76 1278.24 2138.72 1272.48 2138.72C1267.92 2138.72 1263.92 2139.4 1260.48 2140.76C1257.12 2142.04 1254.48 2143.88 1252.56 2146.28C1250.72 2148.68 1249.8 2151.48 1249.8 2154.68C1249.8 2158.76 1251.24 2162.32 1254.12 2165.36C1257.08 2168.32 1260.92 2170.99 1265.64 2173.39C1270.36 2175.79 1275.48 2178.23 1281 2180.71C1286.84 2183.19 1292.76 2185.95 1298.76 2188.99C1304.84 2192.03 1310.4 2195.63 1315.43 2199.79C1320.55 2203.87 1324.63 2208.79 1327.67 2214.55C1330.79 2220.31 1332.35 2227.23 1332.35 2235.31C1332.35 2245.95 1329.47 2255.35 1323.71 2263.51C1318.03 2271.59 1310.04 2277.87 1299.72 2282.35C1289.48 2286.83 1277.56 2289.07 1263.96 2289.07C1251.4 2289.07 1239.32 2287.07 1227.72 2283.07C1216.2 2278.99 1205.52 2273.11 1195.68 2265.43Z" fill="#3093E8"/>
<path d="M1177.43 2105.48V2285.47H1135.2V2105.48H1177.43Z" fill="#3093E8"/>
<path d="M977.777 2265.43L997.696 2233.27C1003.38 2237.75 1008.78 2241.43 1013.89 2244.31C1019.01 2247.11 1024.05 2249.19 1029.01 2250.55C1033.97 2251.91 1039.01 2252.59 1044.13 2252.59C1049.73 2252.59 1054.53 2251.87 1058.53 2250.43C1062.61 2248.91 1065.73 2246.79 1067.89 2244.07C1070.13 2241.35 1071.25 2238.11 1071.25 2234.35C1071.25 2229.95 1069.77 2226.23 1066.81 2223.19C1063.85 2220.07 1059.93 2217.35 1055.05 2215.03C1050.25 2212.63 1045.01 2210.27 1039.33 2207.95C1033.57 2205.55 1027.69 2202.95 1021.69 2200.15C1015.77 2197.35 1010.33 2193.95 1005.38 2189.95C1000.42 2185.87 996.376 2180.95 993.256 2175.19C990.216 2169.43 988.697 2162.44 988.697 2154.2C988.697 2143.32 991.416 2134 996.856 2126.24C1002.38 2118.4 1009.9 2112.4 1019.41 2108.24C1029.01 2104 1039.85 2101.88 1051.93 2101.88C1060.73 2101.88 1069.89 2103.04 1079.41 2105.36C1089.01 2107.68 1098.65 2111.28 1108.33 2116.16L1091.89 2150.12C1086.13 2146.6 1079.89 2143.84 1073.17 2141.84C1066.53 2139.76 1060.33 2138.72 1054.57 2138.72C1050.01 2138.72 1046.01 2139.4 1042.57 2140.76C1039.21 2142.04 1036.57 2143.88 1034.65 2146.28C1032.81 2148.68 1031.89 2151.48 1031.89 2154.68C1031.89 2158.76 1033.33 2162.32 1036.21 2165.36C1039.17 2168.32 1043.01 2170.99 1047.73 2173.39C1052.45 2175.79 1057.57 2178.23 1063.09 2180.71C1068.93 2183.19 1074.85 2185.95 1080.85 2188.99C1086.93 2192.03 1092.49 2195.63 1097.53 2199.79C1102.65 2203.87 1106.73 2208.79 1109.77 2214.55C1112.89 2220.31 1114.45 2227.23 1114.45 2235.31C1114.45 2245.95 1111.57 2255.35 1105.81 2263.51C1100.13 2271.59 1092.13 2277.87 1081.81 2282.35C1071.57 2286.83 1059.65 2289.07 1046.05 2289.07C1033.49 2289.07 1021.41 2287.07 1009.82 2283.07C998.296 2278.99 987.617 2273.11 977.777 2265.43Z" fill="#3093E8"/>
<path d="M831.141 2265.43L851.059 2233.27C856.739 2237.75 862.138 2241.43 867.258 2244.31C872.378 2247.11 877.417 2249.19 882.377 2250.55C887.337 2251.91 892.376 2252.59 897.496 2252.59C903.095 2252.59 907.895 2251.87 911.895 2250.43C915.974 2248.91 919.094 2246.79 921.254 2244.07C923.494 2241.35 924.614 2238.11 924.614 2234.35C924.614 2229.95 923.134 2226.23 920.174 2223.19C917.214 2220.07 913.295 2217.35 908.415 2215.03C903.615 2212.63 898.376 2210.27 892.696 2207.95C886.937 2205.55 881.057 2202.95 875.057 2200.15C869.138 2197.35 863.698 2193.95 858.739 2189.95C853.779 2185.87 849.739 2180.95 846.62 2175.19C843.58 2169.43 842.06 2162.44 842.06 2154.2C842.06 2143.32 844.78 2134 850.219 2126.24C855.739 2118.4 863.258 2112.4 872.778 2108.24C882.377 2104 893.216 2101.88 905.295 2101.88C914.095 2101.88 923.254 2103.04 932.773 2105.36C942.373 2107.68 952.012 2111.28 961.691 2116.16L945.252 2150.12C939.493 2146.6 933.253 2143.84 926.534 2141.84C919.894 2139.76 913.695 2138.72 907.935 2138.72C903.375 2138.72 899.376 2139.4 895.936 2140.76C892.576 2142.04 889.936 2143.88 888.017 2146.28C886.177 2148.68 885.257 2151.48 885.257 2154.68C885.257 2158.76 886.697 2162.32 889.576 2165.36C892.536 2168.32 896.376 2170.99 901.096 2173.39C905.815 2175.79 910.935 2178.23 916.454 2180.71C922.294 2183.19 928.214 2185.95 934.213 2188.99C940.293 2192.03 945.852 2195.63 950.892 2199.79C956.012 2203.87 960.091 2208.79 963.131 2214.55C966.251 2220.31 967.811 2227.23 967.811 2235.31C967.811 2245.95 964.931 2255.35 959.171 2263.51C953.492 2271.59 945.492 2277.87 935.173 2282.35C924.934 2286.83 913.015 2289.07 899.416 2289.07C886.857 2289.07 874.777 2287.07 863.178 2283.07C851.659 2278.99 840.98 2273.11 831.141 2265.43Z" fill="#3093E8"/>
<path d="M682.003 2285.47H637.727L708.761 2105.48H753.158L824.073 2285.47H779.796L766.597 2250.07H695.202L682.003 2285.47ZM708.761 2213.23H753.158L730.96 2154.2L708.761 2213.23Z" fill="#3093E8"/>
<path d="M568.124 2105.48V2285.47H525.887V2105.48H568.124Z" fill="#3093E8"/>
<path d="M368.328 2285.47H324.051L395.086 2105.48H439.482L510.397 2285.47H466.12L452.921 2250.07H381.527L368.328 2285.47ZM395.086 2213.23H439.482L417.284 2154.2L395.086 2213.23Z" fill="#3093E8"/>
<path d="M1903.08 1879.34V1980.41H1889.06L1837.69 1906.28H1836.75V1980.41H1821.5V1879.34H1835.61L1887.04 1953.56H1887.98V1879.34H1903.08Z" fill="black"/>
<path d="M1705.45 1980.41L1677.41 1879.34H1693.45L1713.14 1957.61H1714.08L1734.56 1879.34H1750.45L1770.93 1957.66H1771.87L1791.51 1879.34H1807.6L1779.52 1980.41H1764.17L1742.9 1904.7H1742.11L1720.84 1980.41H1705.45Z" fill="black"/>
<path d="M1667.86 1929.87C1667.86 1940.66 1665.89 1949.94 1661.94 1957.71C1657.99 1965.44 1652.58 1971.39 1645.7 1975.57C1638.86 1979.72 1631.08 1981.79 1622.36 1981.79C1613.61 1981.79 1605.79 1979.72 1598.92 1975.57C1592.07 1971.39 1586.68 1965.42 1582.73 1957.66C1578.78 1949.89 1576.81 1940.63 1576.81 1929.87C1576.81 1919.08 1578.78 1909.82 1582.73 1902.09C1586.68 1894.32 1592.07 1888.37 1598.92 1884.22C1605.79 1880.04 1613.61 1877.96 1622.36 1877.96C1631.08 1877.96 1638.86 1880.04 1645.7 1884.22C1652.58 1888.37 1657.99 1894.32 1661.94 1902.09C1665.89 1909.82 1667.86 1919.08 1667.86 1929.87ZM1652.76 1929.87C1652.76 1921.65 1651.43 1914.72 1648.76 1909.1C1646.13 1903.44 1642.51 1899.16 1637.9 1896.26C1633.33 1893.34 1628.15 1891.87 1622.36 1891.87C1616.54 1891.87 1611.34 1893.34 1606.76 1896.26C1602.19 1899.16 1598.57 1903.44 1595.91 1909.1C1593.28 1914.72 1591.96 1921.65 1591.96 1929.87C1591.96 1938.1 1593.28 1945.04 1595.91 1950.7C1598.57 1956.32 1602.19 1960.6 1606.76 1963.53C1611.34 1966.42 1616.54 1967.87 1622.36 1967.87C1628.15 1967.87 1633.33 1966.42 1637.9 1963.53C1642.51 1960.6 1646.13 1956.32 1648.76 1950.7C1651.43 1945.04 1652.76 1938.1 1652.76 1929.87Z" fill="black"/>
<path d="M1453.74 1980.41V1879.34H1489.76C1497.59 1879.34 1504.09 1880.69 1509.26 1883.38C1514.46 1886.08 1518.34 1889.82 1520.9 1894.59C1523.47 1899.32 1524.75 1904.8 1524.75 1911.02C1524.75 1917.21 1523.45 1922.65 1520.86 1927.36C1518.29 1932.03 1514.41 1935.66 1509.21 1938.26C1504.04 1940.86 1497.55 1942.16 1489.71 1942.16H1462.42V1929.03H1488.33C1493.27 1929.03 1497.28 1928.33 1500.37 1926.91C1503.5 1925.5 1505.79 1923.44 1507.23 1920.74C1508.68 1918.04 1509.41 1914.8 1509.41 1911.02C1509.41 1907.2 1508.67 1903.9 1507.19 1901.1C1505.74 1898.3 1503.45 1896.17 1500.33 1894.69C1497.23 1893.17 1493.17 1892.42 1488.14 1892.42H1468.99V1980.41H1453.74ZM1503.63 1934.81L1528.6 1980.41H1511.23L1486.75 1934.81H1503.63Z" fill="black"/>
<path d="M1416.26 1879.34H1431.56V1945.81C1431.56 1952.89 1429.89 1959.15 1426.57 1964.62C1423.25 1970.04 1418.58 1974.32 1412.56 1977.45C1406.53 1980.54 1399.48 1982.09 1391.38 1982.09C1383.32 1982.09 1376.28 1980.54 1370.26 1977.45C1364.24 1974.32 1359.57 1970.04 1356.25 1964.62C1352.92 1959.15 1351.26 1952.89 1351.26 1945.81V1879.34H1366.51V1944.58C1366.51 1949.15 1367.51 1953.22 1369.52 1956.77C1371.56 1960.32 1374.44 1963.12 1378.16 1965.16C1381.88 1967.17 1386.28 1968.17 1391.38 1968.17C1396.52 1968.17 1400.94 1967.17 1404.66 1965.16C1408.41 1963.12 1411.27 1960.32 1413.25 1956.77C1415.25 1953.22 1416.26 1949.15 1416.26 1944.58V1879.34Z" fill="black"/>
<path d="M1332.24 1929.87C1332.24 1940.66 1330.27 1949.94 1326.32 1957.71C1322.37 1965.44 1316.96 1971.39 1310.08 1975.57C1303.24 1979.72 1295.46 1981.79 1286.74 1981.79C1277.99 1981.79 1270.18 1979.72 1263.3 1975.57C1256.46 1971.39 1251.06 1965.42 1247.11 1957.66C1243.17 1949.89 1241.19 1940.63 1241.19 1929.87C1241.19 1919.08 1243.17 1909.82 1247.11 1902.09C1251.06 1894.32 1256.46 1888.37 1263.3 1884.22C1270.18 1880.04 1277.99 1877.96 1286.74 1877.96C1295.46 1877.96 1303.24 1880.04 1310.08 1884.22C1316.96 1888.37 1322.37 1894.32 1326.32 1902.09C1330.27 1909.82 1332.24 1919.08 1332.24 1929.87ZM1317.14 1929.87C1317.14 1921.65 1315.81 1914.72 1313.14 1909.1C1310.51 1903.44 1306.89 1899.16 1302.29 1896.26C1297.71 1893.34 1292.53 1891.87 1286.74 1891.87C1280.92 1891.87 1275.72 1893.34 1271.15 1896.26C1266.57 1899.16 1262.96 1903.44 1260.29 1909.1C1257.66 1914.72 1256.34 1921.65 1256.34 1929.87C1256.34 1938.1 1257.66 1945.04 1260.29 1950.7C1262.96 1956.32 1266.57 1960.6 1271.15 1963.53C1275.72 1966.42 1280.92 1967.87 1286.74 1967.87C1292.53 1967.87 1297.71 1966.42 1302.29 1963.53C1306.89 1960.6 1310.51 1956.32 1313.14 1950.7C1315.81 1945.04 1317.14 1938.1 1317.14 1929.87Z" fill="black"/>
<path d="M1104.54 1980.41V1879.34H1119.79V1923.26H1170.18V1879.34H1185.48V1980.41H1170.18V1936.34H1119.79V1980.41H1104.54Z" fill="black"/>
<path d="M1009.02 1892.46V1879.34H1087.24V1892.46H1055.71V1980.41H1040.51V1892.46H1009.02Z" fill="black"/>
<path d="M991.808 1879.34V1980.41H976.559V1879.34H991.808Z" fill="black"/>
<path d="M860.492 1980.41L832.461 1879.34H848.5L868.191 1957.61H869.128L889.609 1879.34H905.5L925.98 1957.66H926.918L946.56 1879.34H962.648L934.567 1980.41H919.219L897.949 1904.7H897.16L875.89 1980.41H860.492Z" fill="black"/>
<path d="M708.406 1892.46V1879.34H786.627V1892.46H755.092V1980.41H739.892V1892.46H708.406Z" fill="black"/>
<path d="M636.566 1980.41H620.379L656.75 1879.34H674.369L710.74 1980.41H694.553L665.979 1897.7H665.189L636.566 1980.41ZM639.28 1940.83H691.789V1953.66H639.28V1940.83Z" fill="black"/>
<path d="M524.887 1980.41V1879.34H540.136V1923.26H590.523V1879.34H605.822V1980.41H590.523V1936.34H540.136V1980.41H524.887Z" fill="black"/>
<path d="M506.628 1912.2H491.231C490.639 1908.91 489.537 1906.02 487.924 1903.52C486.312 1901.02 484.338 1898.9 482.002 1897.15C479.666 1895.41 477.051 1894.09 474.156 1893.2C471.293 1892.32 468.25 1891.87 465.026 1891.87C459.202 1891.87 453.988 1893.34 449.382 1896.26C444.808 1899.19 441.189 1903.49 438.524 1909.14C435.892 1914.8 434.576 1921.71 434.576 1929.87C434.576 1938.1 435.892 1945.04 438.524 1950.7C441.189 1956.36 444.825 1960.63 449.431 1963.53C454.037 1966.42 459.219 1967.87 464.976 1967.87C468.168 1967.87 471.195 1967.44 474.057 1966.59C476.952 1965.7 479.568 1964.4 481.904 1962.69C484.24 1960.98 486.214 1958.89 487.826 1956.42C489.471 1953.92 490.606 1951.06 491.231 1947.84L506.628 1947.88C505.806 1952.85 504.21 1957.43 501.841 1961.6C499.505 1965.75 496.495 1969.34 492.81 1972.36C489.158 1975.36 484.98 1977.68 480.275 1979.32C475.57 1980.97 470.438 1981.79 464.878 1981.79C456.126 1981.79 448.329 1979.72 441.486 1975.57C434.642 1971.39 429.247 1965.42 425.299 1957.66C421.383 1949.89 419.426 1940.63 419.426 1929.87C419.426 1919.08 421.4 1909.82 425.348 1902.09C429.296 1894.32 434.692 1888.37 441.535 1884.22C448.378 1880.04 456.159 1877.96 464.878 1877.96C470.241 1877.96 475.241 1878.73 479.88 1880.27C484.552 1881.79 488.747 1884.03 492.465 1886.99C496.183 1889.91 499.259 1893.5 501.693 1897.74C504.128 1901.96 505.773 1906.78 506.628 1912.2Z" fill="black"/>
<path d="M1035.33 2540.77C1035.33 2564.04 1016.48 2582.89 993.214 2582.89C969.952 2582.89 951.094 2564.04 951.094 2540.77C951.094 2517.51 969.952 2498.65 993.214 2498.65C1016.48 2498.65 1035.33 2517.51 1035.33 2540.77Z" fill="url(#paint6_linear_845_91)"/>
<path d="M1203.81 2540.77C1203.81 2564.04 1184.95 2582.89 1161.69 2582.89C1138.43 2582.89 1119.57 2564.04 1119.57 2540.77C1119.57 2517.51 1138.43 2498.65 1161.69 2498.65C1184.95 2498.65 1203.81 2517.51 1203.81 2540.77Z" fill="url(#paint7_linear_845_91)"/>
<path d="M1375.02 2540.77C1375.02 2564.04 1356.16 2582.89 1332.9 2582.89C1309.64 2582.89 1290.78 2564.04 1290.78 2540.77C1290.78 2517.51 1309.64 2498.65 1332.9 2498.65C1356.16 2498.65 1375.02 2517.51 1375.02 2540.77Z" fill="url(#paint8_linear_845_91)"/>
<ellipse cx="1156.79" cy="3162.33" rx="565.049" ry="71.1873" fill="url(#paint9_linear_845_91)"/>
<defs>
<filter id="filter0_b_845_91" x="-20" y="1320.01" width="2363.42" height="1599.81" filterUnits="userSpaceOnUse" color-interpolation-filters="sRGB">
<feFlood flood-opacity="0" result="BackgroundImageFix"/>
<feGaussianBlur in="BackgroundImageFix" stdDeviation="10"/>
<feComposite in2="SourceAlpha" operator="in" result="effect1_backgroundBlur_845_91"/>
<feBlend mode="normal" in="SourceGraphic" in2="effect1_backgroundBlur_845_91" result="shape"/>
</filter>
<filter id="filter1_b_845_91" x="-4" y="1336.01" width="2331.42" height="1567.81" filterUnits="userSpaceOnUse" color-interpolation-filters="sRGB">
<feFlood flood-opacity="0" result="BackgroundImageFix"/>
<feGaussianBlur in="BackgroundImageFix" stdDeviation="2"/>
<feComposite in2="SourceAlpha" operator="in" result="effect1_backgroundBlur_845_91"/>
<feBlend mode="normal" in="SourceGraphic" in2="effect1_backgroundBlur_845_91" result="shape"/>
</filter>
<linearGradient id="paint0_linear_845_91" x1="883.165" y1="0" x2="883.165" y2="671.83" gradientUnits="userSpaceOnUse">
<stop stop-color="#2770AE"/>
<stop offset="1" stop-color="#102E48"/>
</linearGradient>
<linearGradient id="paint1_linear_845_91" x1="1139" y1="455.5" x2="1882" y2="455.5" gradientUnits="userSpaceOnUse">
<stop stop-color="#B2DBFF"/>
<stop offset="1" stop-color="#44A6FB"/>
</linearGradient>
<linearGradient id="paint2_linear_845_91" x1="1255" y1="237.488" x2="512.004" y2="237.488" gradientUnits="userSpaceOnUse">
<stop stop-color="#B2DBFF"/>
<stop offset="1" stop-color="#44A6FB"/>
</linearGradient>
<linearGradient id="paint3_linear_845_91" x1="1161.71" y1="1340.01" x2="1161.71" y2="2899.82" gradientUnits="userSpaceOnUse">
<stop stop-color="#E6F3FF"/>
<stop offset="1" stop-color="#B1DBFF"/>
</linearGradient>
<linearGradient id="paint4_linear_845_91" x1="1161.71" y1="1340.01" x2="1161.71" y2="2899.82" gradientUnits="userSpaceOnUse">
<stop stop-color="#3EA3FB"/>
<stop offset="1" stop-color="#B2DBFF" stop-opacity="0"/>
</linearGradient>
<linearGradient id="paint5_linear_845_91" x1="50933.1" y1="101516" x2="50933.1" y2="698.689" gradientUnits="userSpaceOnUse">
<stop stop-color="#1FAF38"/>
<stop offset="1" stop-color="#60D669"/>
</linearGradient>
<linearGradient id="paint6_linear_845_91" x1="951.094" y1="2540.77" x2="1035.33" y2="2540.77" gradientUnits="userSpaceOnUse">
<stop stop-color="#60D669"/>
<stop offset="1" stop-color="#5BEBFF"/>
</linearGradient>
<linearGradient id="paint7_linear_845_91" x1="1119.57" y1="2540.77" x2="1203.81" y2="2540.77" gradientUnits="userSpaceOnUse">
<stop stop-color="#60D669"/>
<stop offset="1" stop-color="#5BEBFF"/>
</linearGradient>
<linearGradient id="paint8_linear_845_91" x1="1290.78" y1="2540.77" x2="1375.02" y2="2540.77" gradientUnits="userSpaceOnUse">
<stop stop-color="#60D669"/>
<stop offset="1" stop-color="#5BEBFF"/>
</linearGradient>
<linearGradient id="paint9_linear_845_91" x1="591.742" y1="3162.33" x2="1721.84" y2="3162.33" gradientUnits="userSpaceOnUse">
<stop stop-color="#BAFFBA"/>
<stop offset="1" stop-color="#3093E8"/>
</linearGradient>
</defs>
</svg>
