<svg width="61" height="15" viewBox="0 0 61 15" fill="none" xmlns="http://www.w3.org/2000/svg">
<path d="M24.0732 8.78566L27.4392 12.8571H24.7812L21.7857 9.11789V12.8571H19.6071V2.14289H21.7857V8.44289L24.5525 5.35711H27.3301L24.0732 8.78566ZM15.3589 5.14289C14.8819 5.14992 14.4137 5.27055 13.9945 5.49446C13.5752 5.71837 13.2174 6.03888 12.9517 6.42855V5.35711H10.8929V12.8571H13.0714V9.35355C13.0428 9.09925 13.0677 8.84188 13.1446 8.59746C13.2215 8.35304 13.3487 8.1268 13.5183 7.93283C13.6879 7.73885 13.8963 7.58129 14.1305 7.46995C14.3647 7.35861 14.6197 7.29588 14.8796 7.28566C16.1432 7.28566 16.3393 8.50711 16.3393 9.35355V12.8571H18.5179V8.88211C18.5179 6.525 17.7226 5.14289 15.4025 5.14289H15.3589ZM34.8571 9.27855C34.8654 9.43559 34.8654 9.59297 34.8571 9.75H29.1383V9.825C29.2312 10.2718 29.4828 10.6714 29.8482 10.9522C30.2135 11.233 30.6686 11.3765 31.1318 11.3571C31.4993 11.3728 31.8662 11.3155 32.2106 11.1884C32.555 11.0614 32.8697 10.8674 33.1361 10.6179L34.5849 11.6893C34.1257 12.1502 33.5734 12.5113 32.9636 12.7494C32.3538 12.9874 31.7001 13.0972 31.0446 13.0714C30.5017 13.1052 29.9578 13.024 29.4496 12.8332C28.9414 12.6425 28.4807 12.3467 28.0986 11.9658C27.7166 11.585 27.4221 11.1279 27.235 10.6255C27.048 10.1231 26.9727 9.58703 27.0143 9.05356C27.0031 8.52692 27.1024 8.00367 27.3058 7.51642C27.5093 7.02917 27.8126 6.58836 28.1969 6.22146C28.5811 5.85457 29.0381 5.56945 29.5393 5.38389C30.0405 5.19832 30.5752 5.11629 31.11 5.14289C33.1579 5.14289 34.8571 6.56789 34.8571 9.27855ZM32.8311 8.35711C32.8231 8.14489 32.7712 7.93649 32.6787 7.74462C32.5861 7.55274 32.4548 7.38142 32.2928 7.24107C32.1308 7.10073 31.9414 6.99431 31.7361 6.9283C31.5309 6.86228 31.3142 6.83806 31.0992 6.85711C30.1413 6.75527 29.2738 7.41891 29.1383 8.35711H32.8311ZM2.17861 2.14289H0V12.8571H6.5357V10.7145H2.17861V2.14289ZM41.3929 2.14289H43.5714V12.8571H41.5126V12.1071C41.2512 12.4239 40.918 12.6761 40.5398 12.8436C40.1615 13.011 39.7486 13.0891 39.3342 13.0714C38.8278 13.0587 38.3295 12.9442 37.8698 12.735C37.4101 12.5258 36.9988 12.2263 36.6611 11.855C36.3234 11.4837 36.0665 11.0484 35.9061 10.5759C35.7458 10.1033 35.6854 9.60348 35.7286 9.10711C35.6772 8.61004 35.7315 8.10788 35.8881 7.63258C36.0448 7.15728 36.3002 6.71926 36.6384 6.34638C36.9765 5.9735 37.3898 5.67393 37.852 5.46674C38.3143 5.25954 38.8153 5.14925 39.3232 5.14289C39.7015 5.12659 40.0794 5.1845 40.4347 5.31327C40.79 5.44203 41.1158 5.63907 41.3929 5.89289V2.14289ZM41.5562 9.10711C41.5905 8.8597 41.5704 8.60794 41.4974 8.36882C41.4243 8.12969 41.3 7.90875 41.1327 7.7209C40.9655 7.53305 40.7593 7.38266 40.5279 7.27986C40.2966 7.17706 40.0455 7.12426 39.7917 7.125C38.7495 7.19941 37.9599 8.0809 38.0161 9.10711C37.9599 10.1333 38.7495 11.0149 39.7917 11.0893C40.0455 11.0901 40.2966 11.0373 40.5279 10.9345C40.7593 10.8317 40.9656 10.6813 41.1328 10.4934C41.3 10.3055 41.4244 10.0846 41.4974 9.84544C41.5705 9.6063 41.5905 9.35453 41.5562 9.10711ZM8.7143 1.92855C8.36397 1.93344 8.02858 2.06889 7.77584 2.30757C7.52311 2.54624 7.37186 2.87035 7.35264 3.21445C7.35264 3.95402 7.96229 4.55367 8.7143 4.55367C9.46632 4.55367 10.0757 3.95391 10.0757 3.21445C10.0565 2.87039 9.90524 2.54633 9.65253 2.30768C9.39982 2.06903 9.06447 1.93358 8.71418 1.92867L8.7143 1.92855ZM7.625 12.8571H9.80361V5.35711H7.625V12.8571ZM61 1.07145V13.9286C61 14.2127 60.8852 14.4852 60.681 14.6862C60.4767 14.8871 60.1996 15 59.9107 15H46.8393C46.5504 15 46.2733 14.8871 46.069 14.6862C45.8648 14.4852 45.75 14.2127 45.75 13.9286V1.07145C45.75 0.78728 45.8648 0.514754 46.069 0.313819C46.2733 0.112884 46.5504 0 46.8393 0L59.9107 0C60.1996 0 60.4767 0.112884 60.681 0.313819C60.8852 0.514754 61 0.78728 61 1.07145ZM50.1071 5.35711H47.9286V12.8571H50.1071V5.35711ZM50.3794 3.21434C50.3794 2.47465 49.7698 1.875 49.0179 1.875C48.2659 1.875 47.6562 2.47465 47.6562 3.21434C47.6562 3.95391 48.2659 4.55355 49.0179 4.55355C49.7698 4.55355 50.3794 3.95391 50.3794 3.21434ZM58.8214 8.88211C58.8214 6.525 58.0263 5.14289 55.7061 5.14289C55.2217 5.14293 54.7447 5.26023 54.3173 5.48445C53.8898 5.70866 53.5251 6.0329 53.2551 6.42855V5.35711H51.1964V12.8571H53.375V9.35355C53.3464 9.09925 53.3713 8.84188 53.4482 8.59746C53.5251 8.35304 53.6523 8.1268 53.8219 7.93283C53.9915 7.73885 54.1999 7.58129 54.4341 7.46995C54.6683 7.35861 54.9233 7.29588 55.1832 7.28566C56.4468 7.28566 56.6429 8.50711 56.6429 9.35355V12.8571H58.8214V8.88211Z" fill="#0A66C2"/>
</svg>
