<svg width="354" height="101" viewBox="0 0 354 101" fill="none" xmlns="http://www.w3.org/2000/svg">
<g clip-path="url(#clip0_426_2)">
<path d="M329.991 12.8051C329.991 15.7767 331.171 18.6266 333.272 20.7278C335.374 22.829 338.224 24.0095 341.195 24.0095C344.167 24.0095 347.017 22.829 349.118 20.7278C351.219 18.6266 352.4 15.7767 352.4 12.8051C352.4 9.83347 351.219 6.98358 349.118 4.88234C347.017 2.7811 344.167 1.60063 341.195 1.60063C338.224 1.60063 335.374 2.7811 333.272 4.88234C331.171 6.98358 329.991 9.83347 329.991 12.8051V12.8051ZM354 12.8051C354 16.2012 352.651 19.4582 350.25 21.8596C347.848 24.261 344.591 25.6101 341.195 25.6101C337.799 25.6101 334.542 24.261 332.141 21.8596C329.739 19.4582 328.39 16.2012 328.39 12.8051C328.39 9.40896 329.739 6.15194 332.141 3.75052C334.542 1.3491 337.799 0 341.195 0C344.591 0 347.848 1.3491 350.25 3.75052C352.651 6.15194 354 9.40896 354 12.8051V12.8051ZM337.194 6.40574H342.172C344.909 6.40574 346.559 7.96315 346.559 10.3433C346.559 12.1648 345.491 13.4485 344.166 13.9287L346.797 19.2076H344.364L342.028 14.2841H339.332V19.2076H337.194V6.40574ZM339.33 8.15043V12.5954H341.81C343.402 12.5954 344.328 11.8543 344.328 10.4185C344.328 8.95715 343.374 8.15043 341.867 8.15043H339.33Z" fill="#424242"/>
</g>
<path d="M12.6544 65.8558H33.4438V75.8889H0V12.7975H12.6544V65.8558Z" fill="#424242"/>
<path d="M63.7227 76.7024C58.9019 76.7024 54.5633 75.6479 50.7067 73.5388C46.8501 71.3695 43.807 68.3264 41.5774 64.4095C39.4081 60.4927 38.3234 55.9732 38.3234 50.8512C38.3234 45.7292 39.4382 41.2097 41.6678 37.2929C43.9577 33.3761 47.061 30.3631 50.9779 28.254C54.8947 26.0847 59.2635 25 64.0842 25C68.905 25 73.2737 26.0847 77.1906 28.254C81.1074 30.3631 84.1807 33.3761 86.4103 37.2929C88.7001 41.2097 89.845 45.7292 89.845 50.8512C89.845 55.9732 88.67 60.4927 86.3199 64.4095C84.03 68.3264 80.8965 71.3695 76.9194 73.5388C73.0026 75.6479 68.6037 76.7024 63.7227 76.7024ZM63.7227 65.675C66.0125 65.675 68.1517 65.1326 70.1403 64.048C72.1891 62.903 73.8161 61.2158 75.0213 58.9862C76.2264 56.7566 76.829 54.045 76.829 50.8512C76.829 46.0907 75.5636 42.4451 73.0327 39.9142C70.5621 37.323 67.519 36.0275 63.9034 36.0275C60.2879 36.0275 57.2448 37.323 54.7742 39.9142C52.3638 42.4451 51.1586 46.0907 51.1586 50.8512C51.1586 55.6117 52.3337 59.2875 54.6838 61.8786C57.0942 64.4095 60.1071 65.675 63.7227 65.675Z" fill="#424242"/>
<path d="M118.742 25C122.478 25 125.762 25.7533 128.594 27.2597C131.426 28.706 133.656 30.6041 135.283 32.9542V25.8135H148.028V76.2504C148.028 80.8904 147.094 85.0182 145.226 88.6337C143.358 92.3095 140.556 95.202 136.82 97.311C133.084 99.4804 128.564 100.565 123.261 100.565C116.151 100.565 110.306 98.9079 105.726 95.5936C101.206 92.2794 98.6454 87.76 98.0429 82.0353H110.607C111.27 84.3252 112.686 86.133 114.855 87.4587C117.085 88.8446 119.766 89.5376 122.9 89.5376C126.576 89.5376 129.558 88.4228 131.848 86.1932C134.138 84.0239 135.283 80.7096 135.283 76.2504V68.477C133.656 70.8271 131.396 72.7856 128.504 74.3523C125.672 75.919 122.418 76.7024 118.742 76.7024C114.524 76.7024 110.667 75.6177 107.172 73.4484C103.677 71.2791 100.905 68.236 98.8564 64.3191C96.8678 60.342 95.8735 55.7925 95.8735 50.6704C95.8735 45.6087 96.8678 41.1194 98.8564 37.2025C100.905 33.2857 103.647 30.2727 107.082 28.1636C110.577 26.0546 114.463 25 118.742 25ZM135.283 50.8512C135.283 47.778 134.68 45.1567 133.475 42.9874C132.27 40.7578 130.643 39.0705 128.594 37.9256C126.545 36.7204 124.346 36.1178 121.996 36.1178C119.646 36.1178 117.476 36.6903 115.488 37.8352C113.499 38.9802 111.872 40.6674 110.607 42.897C109.402 45.0663 108.799 47.6575 108.799 50.6704C108.799 53.6834 109.402 56.3348 110.607 58.6246C111.872 60.8542 113.499 62.5716 115.488 63.7768C117.537 64.982 119.706 65.5846 121.996 65.5846C124.346 65.5846 126.545 65.0121 128.594 63.8672C130.643 62.662 132.27 60.9748 133.475 58.8054C134.68 56.5758 135.283 53.9244 135.283 50.8512Z" fill="#424242"/>
<path d="M208.293 25.8135L177.29 99.5708H163.822L174.669 74.6235L154.602 25.8135H168.793L181.719 60.794L194.825 25.8135H208.293Z" fill="#424242"/>
<path d="M220.719 76.5216C218.429 76.5216 216.531 75.8286 215.024 74.4427C213.578 72.9965 212.855 71.2188 212.855 69.1097C212.855 67.0007 213.578 65.2532 215.024 63.8672C216.531 62.421 218.429 61.6979 220.719 61.6979C222.948 61.6979 224.786 62.421 226.232 63.8672C227.679 65.2532 228.402 67.0007 228.402 69.1097C228.402 71.2188 227.679 72.9965 226.232 74.4427C224.786 75.8286 222.948 76.5216 220.719 76.5216Z" fill="#424242"/>
<path d="M277.281 63.8672H252.153L247.995 75.8889H234.708L257.395 12.7072H272.129L294.816 75.8889H281.439L277.281 63.8672ZM273.846 53.7437L264.717 27.3501L255.588 53.7437H273.846Z" fill="#428BCA"/>
<path d="M315.951 12.7975V75.8889H303.297V12.7975H315.951Z" fill="#428BCA"/>
<defs>
<clipPath id="clip0_426_2">
<rect width="25.6101" height="25.6101" fill="white" transform="translate(328.39)"/>
</clipPath>
</defs>
</svg>
